<svg xmlns="http://www.w3.org/2000/svg" width="465" height="728" viewBox="0 0 465 728"><g transform="translate(-20 -20)"><rect width="24" height="24" transform="translate(460 504)" fill="none"/><rect width="16" height="12.8" rx="3" transform="translate(464 510)" fill="none" stroke="#586074" stroke-width="1"/><path d="M470.042,510v12.865" fill="none" stroke="#586074" stroke-width="1"/><path d="M465.631,513.754h1.5" fill="none" stroke="#586074" stroke-linecap="round" stroke-width="1"/><path d="M465.631,515.354h1.5" fill="none" stroke="#586074" stroke-linecap="round" stroke-width="1"/><rect width="24" height="24" transform="translate(64 636)" fill="none"/><path d="M69.5,646.991a.665.665,0,0,1,0-.939l4.694-4.691a4.645,4.645,0,0,1,6.652,6.485c-.027.028-.055.056-.083.083l-6.1,6.1a3.318,3.318,0,0,1-4.691-4.693l5.161-5.161a1.991,1.991,0,0,1,2.815,2.816l-3.754,3.753a.663.663,0,0,1-.938-.938l3.753-3.754a.663.663,0,0,0-.938-.938h0l-5.161,5.161a1.991,1.991,0,0,0,2.815,2.815l6.1-6.1a3.318,3.318,0,1,0-4.579-4.8c-.039.037-.076.074-.113.113l-4.692,4.691a.663.663,0,0,1-.938,0" fill="#4262f0"/><g opacity="0.54"><rect width="24" height="24" transform="translate(108 636)" fill="none"/><path d="M113.5,646.991a.665.665,0,0,1,0-.939l4.694-4.691a4.645,4.645,0,0,1,6.652,6.485c-.027.028-.055.056-.083.083l-6.1,6.1a3.318,3.318,0,0,1-4.691-4.693l5.161-5.161a1.991,1.991,0,0,1,2.815,2.816l-3.754,3.753a.663.663,0,1,1-.938-.938l3.753-3.754a.663.663,0,0,0-.938-.938h0l-5.161,5.161a1.991,1.991,0,0,0,2.815,2.815l6.1-6.1a3.318,3.318,0,1,0-4.579-4.8c-.039.037-.076.074-.113.113l-4.692,4.691a.663.663,0,0,1-.938,0" fill="#586074"/></g><path d="M84,602.111v7.111a3.566,3.566,0,0,1-3.556,3.555H71.555A3.566,3.566,0,0,1,68,609.222V598.555A3.567,3.567,0,0,1,71.555,595h5.333Z" fill="none" stroke="#ff3131" stroke-linecap="round" stroke-linejoin="round" stroke-width="1.5"/><path d="M73.74,603.237l4.521,4.521" fill="none" stroke="#ff3131" stroke-linecap="round" stroke-width="1.5"/><path d="M78.261,603.237l-4.521,4.521" fill="none" stroke="#ff3131" stroke-linecap="round" stroke-width="1.5"/><rect width="24" height="24" transform="translate(64 592)" fill="none"/><path d="M128,602.111v7.111a3.566,3.566,0,0,1-3.556,3.555h-8.889A3.566,3.566,0,0,1,112,609.222V598.555A3.567,3.567,0,0,1,115.555,595h5.333Z" fill="none" stroke="#1ac871" stroke-linecap="round" stroke-linejoin="round" stroke-width="1.5"/><path d="M123.913,603.237l-4.521,4.521-2.5-2.5" fill="none" stroke="#1ac871" stroke-linecap="round" stroke-linejoin="round" stroke-width="1.5"/><rect width="24" height="24" transform="translate(108 592)" fill="none"/><rect width="24" height="24" transform="translate(152 592)" fill="none"/><path d="M172,602.111v7.111a3.566,3.566,0,0,1-3.556,3.555h-8.889A3.566,3.566,0,0,1,156,609.222V598.555A3.567,3.567,0,0,1,159.555,595h5.333Z" fill="none" stroke="#ffae04" stroke-linecap="round" stroke-linejoin="round" stroke-width="1.5"/><path d="M163.977,609.222h1.349a2.162,2.162,0,0,0,2.164-2.162v0h0a2.162,2.162,0,0,0-2.163-2.163h-4.255" fill="none" stroke="#ffae04" stroke-linecap="round" stroke-miterlimit="10" stroke-width="1.5"/><path d="M161.883,603.272,160.26,604.9l1.623,1.623" fill="none" stroke="#ffae04" stroke-linecap="round" stroke-linejoin="round" stroke-width="1.5"/><rect width="24" height="24" transform="translate(416 196)" fill="none"/><path d="M422.5,204a.5.5,0,0,0,0,1h12a.5.5,0,0,0,0-1Zm-.5,4.5a.5.5,0,0,1,.5-.5h12a.5.5,0,0,1,0,1h-12A.5.5,0,0,1,422,208.5Zm0,4a.5.5,0,0,1,.5-.5h12a.5.5,0,0,1,0,1h-12A.5.5,0,0,1,422,212.5Z" fill="#586074" stroke="#586074" stroke-width="0.5" fill-rule="evenodd"/><rect width="24" height="24" transform="translate(108 548)" fill="none"/><path d="M123.8,558.035l2.465,2.465-2.465,2.465" fill="none" stroke="#586074" stroke-linecap="round" stroke-linejoin="round" stroke-width="1"/><path d="M117.254,560.5h9.019" fill="none" stroke="#586074" stroke-linecap="round" stroke-width="1"/><path d="M116,554h-1a2,2,0,0,0-2,2v9a2,2,0,0,0,2,2h1" fill="none" stroke="#586074" stroke-linecap="round" stroke-miterlimit="10" stroke-width="1"/><circle cx="3" cy="3" r="3" transform="translate(68 557)" fill="none"/><circle cx="3.5" cy="3.5" r="3.5" transform="translate(67.5 556.5)" fill="none" stroke="#586074" stroke-width="1"/><path d="M74.783,560h9.249" fill="none" stroke="#586074" stroke-linecap="round" stroke-width="1"/><path d="M82,560v2.155" fill="none" stroke="#586074" stroke-linecap="round" stroke-width="1"/><path d="M79,560v2.155" fill="none" stroke="#586074" stroke-linecap="round" stroke-width="1"/><rect width="24" height="24" transform="translate(64 548)" fill="none"/><rect width="24" height="24" transform="translate(64 504)" fill="none"/><path d="M72.5,515.8l2.8,2.9L81,513" fill="none" stroke="#fff" stroke-linecap="round" stroke-linejoin="round" stroke-width="1.5"/><path d="M480,294.111v7.111a3.566,3.566,0,0,1-3.556,3.555h-8.889A3.566,3.566,0,0,1,464,301.222V290.555A3.567,3.567,0,0,1,467.555,287h5.333Z" fill="none" stroke="#586074" stroke-linecap="round" stroke-linejoin="round" stroke-width="1"/><rect width="24" height="24" transform="translate(460 284)" fill="none"/><g style="isolation:isolate"><text transform="translate(468 300)" fill="#586074" font-size="6" font-family="Roboto-Medium, Roboto" font-weight="500" style="isolation:isolate"><tspan x="0" y="0">pdf</tspan></text></g><path d="M36.8,610.4H27.2a3.209,3.209,0,0,1-3.2-3.2v-8a3.209,3.209,0,0,1,3.2-3.2h3.2l2.4,3.2h4a3.21,3.21,0,0,1,3.2,3.2v4.8A3.21,3.21,0,0,1,36.8,610.4Z" fill="none" stroke="#fff" stroke-linecap="round" stroke-linejoin="round" stroke-width="1"/><path d="M35.6,604.8H28.4" fill="none" stroke="#fff" stroke-linecap="round" stroke-linejoin="round" stroke-width="1"/><rect width="24" height="24" transform="translate(20 592)" fill="none"/><rect width="24" height="24" transform="translate(328 372)" fill="none"/><path d="M340,392a8,8,0,1,1,8-8A8,8,0,0,1,340,392Zm0-15a7,7,0,1,0,7,7A7,7,0,0,0,340,377Z" fill="#090f39"/><rect width="24" height="24" transform="translate(284 372)" fill="none"/><rect width="24" height="24" transform="translate(284 372)" fill="none"/><path d="M296,392a8,8,0,1,1,8-8A8,8,0,0,1,296,392Zm0-15a7,7,0,1,0,7,7A7,7,0,0,0,296,377Z" fill="#4262f0"/><circle cx="4.5" cy="4.5" r="4.5" transform="translate(291.5 379.5)" fill="#4262f0"/><rect width="24" height="24" transform="translate(240 372)" fill="none"/><rect width="24" height="24" transform="translate(240 372)" fill="none"/><g opacity="0.3"><path d="M257.5,391h-11a1.5,1.5,0,0,1-1.5-1.5v-11a1.5,1.5,0,0,1,1.5-1.5h11a1.5,1.5,0,0,1,1.5,1.5v11A1.5,1.5,0,0,1,257.5,391Zm-11-13a.5.5,0,0,0-.5.5v11a.5.5,0,0,0,.5.5h11a.5.5,0,0,0,.5-.5v-11a.5.5,0,0,0-.5-.5Z" fill="#090f39"/></g><rect width="24" height="24" transform="translate(196 372)" fill="none"/><path d="M213.5,391h-11a1.5,1.5,0,0,1-1.5-1.5v-11a1.5,1.5,0,0,1,1.5-1.5h11a1.5,1.5,0,0,1,1.5,1.5v11A1.5,1.5,0,0,1,213.5,391Zm-11-13a.5.5,0,0,0-.5.5v11a.5.5,0,0,0,.5.5h11a.5.5,0,0,0,.5-.5v-11a.5.5,0,0,0-.5-.5Z" fill="#586074"/><rect width="7" height="7" rx="1" transform="translate(204.5 380.5)" fill="none" stroke="#586074" stroke-linecap="round" stroke-linejoin="round" stroke-width="1"/><rect width="24" height="24" transform="translate(196 372)" fill="none"/><path d="M169.5,377h-11a1.5,1.5,0,0,0-1.5,1.5h0v11a1.5,1.5,0,0,0,1.5,1.5h11a1.5,1.5,0,0,0,1.5-1.5v-11a1.5,1.5,0,0,0-1.5-1.5Zm-1.646,4.853-5,5a.5.5,0,0,1-.707,0h0l-2-2a.5.5,0,1,1,.708-.707l1.646,1.647,4.646-4.647a.5.5,0,0,1,.708.707Z" fill="#4262f0"/><rect width="24" height="24" transform="translate(152 372)" fill="none"/><path d="M125.5,391h-11a1.5,1.5,0,0,1-1.5-1.5v-11a1.5,1.5,0,0,1,1.5-1.5h11a1.5,1.5,0,0,1,1.5,1.5v11A1.5,1.5,0,0,1,125.5,391Zm-11-13a.5.5,0,0,0-.5.5v11a.5.5,0,0,0,.5.5h11a.5.5,0,0,0,.5-.5v-11a.5.5,0,0,0-.5-.5Z" fill="#586074"/><rect width="24" height="24" transform="translate(108 372)" fill="none"/><rect width="24" height="24" transform="translate(328 240)" fill="none"/><path d="M340,256a4,4,0,1,1,2.829-1.171A4,4,0,0,1,340,256Zm0-3.436h0l1.156,1.156a.4.4,0,0,0,.564,0,.408.408,0,0,0,0-.564L340.564,252l1.156-1.156a.4.4,0,0,0-.52-.608.365.365,0,0,0-.044.044L340,251.436l-1.156-1.156a.4.4,0,1,0-.608.52.368.368,0,0,0,.044.044L339.436,252l-1.156,1.156a.4.4,0,1,0,.52.608.365.365,0,0,0,.044-.044Z" fill="#586074"/><path d="M300.388,247.619a.693.693,0,0,0-.981,0l-3.407,3.4-3.407-3.41a.7.7,0,0,0-.986.986l3.41,3.406-3.41,3.408a.7.7,0,0,0,.982.982L296,252.983l3.407,3.406a.7.7,0,0,0,.981-.981L296.982,252l3.406-3.406A.7.7,0,0,0,300.388,247.619Z" fill="#586074"/><rect width="24" height="24" transform="translate(284 240)" fill="none"/><path d="M433.388,551.619a.693.693,0,0,0-.981,0l-3.407,3.4-3.407-3.41a.7.7,0,0,0-.986.986l3.41,3.406-3.41,3.408a.7.7,0,0,0,.982.982L429,556.983l3.407,3.406a.695.695,0,0,0,.981-.981L429.982,556l3.406-3.406A.7.7,0,0,0,433.388,551.619Z" fill="#fff"/><rect width="24" height="24" transform="translate(417 544)" fill="none"/><path d="M210.5,248.209a.713.713,0,0,0-1,0l-3.291,3.291a.712.712,0,0,0,0,1.008h0l3.291,3.282a.714.714,0,0,0,1-1.01L207.727,252l2.773-2.781A.719.719,0,0,0,210.5,248.209Z" fill="#586074"/><rect width="24" height="24" transform="translate(196 240)" fill="none"/><path d="M210.5,292.209a.713.713,0,0,0-1,0l-3.291,3.291a.712.712,0,0,0,0,1.008h0l3.291,3.282a.714.714,0,0,0,1-1.01L207.727,296l2.773-2.781A.719.719,0,0,0,210.5,292.209Z" fill="#fff"/><rect width="24" height="24" transform="translate(196 284)" fill="none"/><path d="M250.21,292.21a.712.712,0,0,0,0,1.008l0,0,2.779,2.78-2.779,2.78a.714.714,0,0,0,1.01,1.01l3.288-3.29a.712.712,0,0,0,0-1.008l0,0-3.288-3.29A.72.72,0,0,0,250.21,292.21Z" fill="#fff"/><rect width="24" height="24" transform="translate(240 284)" fill="none"/><rect width="24" height="24" transform="translate(460 20)" fill="none"/><g opacity="0.3"><circle cx="1" cy="1" r="1" transform="translate(469 24)" fill="#090f39"/><circle cx="1" cy="1" r="1" transform="translate(474 24)" fill="#090f39"/><circle cx="1" cy="1" r="1" transform="translate(469 29)" fill="#090f39"/><circle cx="1" cy="1" r="1" transform="translate(474 29)" fill="#090f39"/><circle cx="1" cy="1" r="1" transform="translate(469 34)" fill="#090f39"/><circle cx="1" cy="1" r="1" transform="translate(474 34)" fill="#090f39"/><circle cx="1" cy="1" r="1" transform="translate(469 39)" fill="#090f39"/><circle cx="1" cy="1" r="1" transform="translate(474 39)" fill="#090f39"/></g><path d="M424.25,32.125A1.125,1.125,0,1,1,423.125,31,1.125,1.125,0,0,1,424.25,32.125Zm5,0A1.125,1.125,0,1,1,428.125,31,1.125,1.125,0,0,1,429.25,32.125Zm3.875,1.125A1.125,1.125,0,1,0,432,32.125,1.125,1.125,0,0,0,433.125,33.25Z" fill="#586074" fill-rule="evenodd"/><rect width="24" height="24" transform="translate(416 20)" fill="none"/><path d="M385.25,27.125A1.125,1.125,0,1,1,384.125,26,1.125,1.125,0,0,1,385.25,27.125Zm0,5A1.125,1.125,0,1,1,384.125,31,1.125,1.125,0,0,1,385.25,32.125Zm-1.125,6.125A1.125,1.125,0,1,0,383,37.125,1.125,1.125,0,0,0,384.125,38.25Z" fill="#586074" fill-rule="evenodd"/><rect width="24" height="24" transform="translate(372 20)" fill="none"/><rect width="24" height="24" transform="translate(416 284)" fill="none"/><rect width="23.9" height="23.9" transform="translate(416.05 284.05)" fill="none"/><rect width="24" height="24" transform="translate(328 328)" fill="none"/><rect width="24" height="24" transform="translate(372 328)" fill="none"/><rect width="24" height="24" transform="translate(416 328)" fill="none"/><rect width="24" height="24" transform="translate(460 328)" fill="none"/><rect width="24" height="24" transform="translate(460 372)" fill="none"/><rect width="24" height="24" transform="translate(196 504)" fill="none"/><rect width="24" height="24" transform="translate(240 504)" fill="none"/><rect width="24" height="24" transform="translate(284 504)" fill="none"/><rect width="24" height="24" transform="translate(328 592)" fill="none"/><rect width="23.9" height="23.9" transform="translate(328.05 592.05)" fill="none" stroke="#586074" stroke-width="0.1"/><rect width="24" height="24" transform="translate(372 592)" fill="none"/><rect width="23.9" height="23.9" transform="translate(372.05 592.05)" fill="none" stroke="#586074" stroke-width="0.1"/><rect width="24" height="24" transform="translate(416 592)" fill="none"/><rect width="23.9" height="23.9" transform="translate(416.05 592.05)" fill="none" stroke="#586074" stroke-width="0.1"/><rect width="24" height="24" transform="translate(460 592)" fill="none"/><rect width="23.9" height="23.9" transform="translate(460.05 592.05)" fill="none" stroke="#586074" stroke-width="0.1"/><rect width="24" height="24" transform="translate(64 328)" fill="none"/><path d="M72.3,339.71l2.586,2.59a1,1,0,0,0,1.41,0l2.59-2.59a1,1,0,0,0-.71-1.71H73a1,1,0,0,0-.7,1.71Z" fill="#586074"/><rect width="24" height="24" transform="translate(461 548)" fill="none"/><path d="M469.3,559.71l2.586,2.59a1,1,0,0,0,1.41,0l2.59-2.59a1,1,0,0,0-.71-1.71H470a1,1,0,0,0-.7,1.71Z" fill="#4262f0"/><rect width="24" height="24" transform="translate(20 328)" fill="none"/><path d="M28.3,340.882l2.586-2.59a1,1,0,0,1,1.41,0l2.59,2.59a1,1,0,0,1-.71,1.71H29a1,1,0,0,1-.7-1.71Z" fill="#586074"/><rect width="24" height="24" transform="translate(152 328)" fill="none"/><path d="M164.882,336.3l-2.59,2.586a1,1,0,0,0,0,1.41l2.59,2.59a1,1,0,0,0,1.71-.71V337a1,1,0,0,0-1.71-.7Z" fill="#586074"/><rect width="24" height="24" transform="translate(108 328)" fill="none"/><path d="M119.71,342.88l2.59-2.59a1,1,0,0,0,0-1.41l-2.59-2.59A1,1,0,0,0,118,337v5.17a1,1,0,0,0,1.71.71Z" fill="#586074"/><rect width="24" height="24" transform="translate(20 240)" fill="none"/><path d="M35.293,246.292a1,1,0,0,0-1.41,0l-4.591,4.59a1,1,0,0,0,0,1.41l4.59,4.59a1,1,0,1,0,1.519-1.3.936.936,0,0,0-.109-.109l-3.88-3.89,3.881-3.882A1,1,0,0,0,35.293,246.292Z" fill="#586074"/><rect width="24" height="24" transform="translate(20 284)" fill="none"/><path d="M35.293,290.292a1,1,0,0,0-1.41,0l-4.591,4.59a1,1,0,0,0,0,1.41l4.59,4.59a1,1,0,1,0,1.519-1.3.937.937,0,0,0-.109-.109l-3.88-3.89,3.881-3.882A1,1,0,0,0,35.293,290.292Z" fill="#fff"/><rect width="24" height="24" transform="translate(64 240)" fill="none"/><path d="M73.292,246.294a1,1,0,0,0,0,1.41l3.88,3.88-3.88,3.88a1,1,0,0,0,1.41,1.41l4.59-4.59a1,1,0,0,0,0-1.41l-4.592-4.59A1,1,0,0,0,73.292,246.294Z" fill="#586074"/><rect width="24" height="24" transform="translate(64 284)" fill="none"/><path d="M73.292,290.294a1,1,0,0,0,0,1.41l3.88,3.88-3.88,3.88a1,1,0,0,0,1.41,1.41l4.59-4.59a1,1,0,0,0,0-1.41l-4.592-4.59A1,1,0,0,0,73.292,290.294Z" fill="#fff"/><rect width="24" height="24" transform="translate(108 240)" fill="none"/><path d="M118.883,249.292l-4.591,4.591a1,1,0,0,0,1.408,1.41l3.89-3.88,3.88,3.88a1,1,0,0,0,1.41-1.41l-4.587-4.591A1,1,0,0,0,118.883,249.292Z" fill="#586074"/><rect width="24" height="24" transform="translate(108 284)" fill="none"/><path d="M118.883,293.292l-4.591,4.591a1,1,0,0,0,1.408,1.41l3.89-3.88,3.88,3.88a1,1,0,0,0,1.41-1.41l-4.587-4.591A1,1,0,0,0,118.883,293.292Z" fill="#fff"/><rect width="24" height="24" transform="translate(284 284)" fill="none"/><path d="M294.883,293.292l-4.591,4.591a1,1,0,0,0,1.408,1.41l3.89-3.88,3.88,3.88a1,1,0,0,0,1.41-1.41l-4.587-4.591A1,1,0,0,0,294.883,293.292Z" fill="#4262f0"/><rect width="24" height="24" transform="translate(152 240)" fill="none"/><path d="M167.462,249.292l-3.88,3.88-3.882-3.88a1,1,0,0,0-1.408,1.408l4.59,4.59a1,1,0,0,0,1.41,0l4.59-4.59a1,1,0,0,0,0-1.41,1.017,1.017,0,0,0-1.42,0Z" fill="#586074"/><rect width="24" height="24" transform="translate(152 284)" fill="none"/><path d="M167.462,293.292l-3.88,3.88-3.882-3.88a1,1,0,0,0-1.408,1.408l4.59,4.59a1,1,0,0,0,1.41,0l4.59-4.59a1,1,0,0,0,0-1.41,1.017,1.017,0,0,0-1.42,0Z" fill="#fff"/><rect width="24" height="24" transform="translate(328 284)" fill="none"/><path d="M343.462,293.292l-3.88,3.88-3.882-3.88a1,1,0,0,0-1.408,1.408l4.59,4.59a1,1,0,0,0,1.41,0l4.59-4.59a1,1,0,0,0,0-1.41,1.017,1.017,0,0,0-1.42,0Z" fill="#4262f0"/><path d="M250.21,248.21a.712.712,0,0,0,0,1.008l0,0,2.779,2.78-2.779,2.78a.714.714,0,0,0,1.01,1.01l3.288-3.29a.712.712,0,0,0,0-1.008l0,0-3.288-3.29A.72.72,0,0,0,250.21,248.21Z" fill="#586074"/><rect width="24" height="24" transform="translate(240 240)" fill="none"/><rect width="24" height="24" transform="translate(372 240)" fill="none"/><path d="M391.792,250.995H378.621l2.881-2.882a1,1,0,0,0-1.289-1.529.986.986,0,0,0-.121.121l-4.591,4.59a1,1,0,0,0,0,1.41l4.59,4.59a1,1,0,0,0,1.519-1.3.934.934,0,0,0-.109-.109l-2.88-2.89h13.17a1,1,0,0,0,0-2Z" fill="#586074"/><rect width="24" height="24" transform="translate(461 64)" fill="none"/><path d="M481,70.631v11.12a1.6,1.6,0,0,1-2.24,1.44l-8.16-3.6-2.4-1.04h-1.6a1.6,1.6,0,0,1-1.6-1.6h0v-1.6a1.6,1.6,0,0,1,1.6-1.6h1.6l10.56-4.64a1.637,1.637,0,0,1,2.125.921A1.619,1.619,0,0,1,481,70.631Z" fill="none" stroke="#586074" stroke-linecap="round" stroke-linejoin="round" stroke-width="1"/><path d="M470.6,79.591v2.16a1.6,1.6,0,0,1-1.6,1.6h0a1.343,1.343,0,0,1-1.12-.48,1.583,1.583,0,0,1-.48-1.12v-3.2h.8Z" fill="none" stroke="#586074" stroke-linecap="round" stroke-linejoin="round" stroke-width="1"/><rect width="24" height="24" transform="translate(240 20)" fill="none"/><path d="M250.4,36.8a6.4,6.4,0,1,0-6.4-6.4h0A6.4,6.4,0,0,0,250.4,36.8Z" fill="none" stroke="#586074" stroke-linecap="round" stroke-linejoin="round" stroke-width="1"/><path d="M260,40l-5.12-5.12" fill="none" stroke="#586074" stroke-linecap="round" stroke-linejoin="round" stroke-width="1"/><rect width="24" height="24" transform="translate(196 20)" fill="none"/><path d="M204.8,30.4h-3.2a1.6,1.6,0,0,1-1.6-1.6h0V25.6a1.6,1.6,0,0,1,1.6-1.6h3.2a1.6,1.6,0,0,1,1.6,1.6h0v3.2a1.6,1.6,0,0,1-1.6,1.6Z" fill="none" stroke="#586074" stroke-linecap="round" stroke-linejoin="round" stroke-width="1"/><path d="M214.4,30.4h-3.2a1.6,1.6,0,0,1-1.6-1.6h0V25.6a1.6,1.6,0,0,1,1.6-1.6h3.2a1.6,1.6,0,0,1,1.6,1.6h0v3.2a1.6,1.6,0,0,1-1.6,1.6Z" fill="none" stroke="#586074" stroke-linecap="round" stroke-linejoin="round" stroke-width="1"/><path d="M204.8,40h-3.2a1.6,1.6,0,0,1-1.6-1.6h0V35.2a1.6,1.6,0,0,1,1.6-1.6h3.2a1.6,1.6,0,0,1,1.6,1.6h0v3.2a1.6,1.6,0,0,1-1.6,1.6Z" fill="none" stroke="#586074" stroke-linecap="round" stroke-linejoin="round" stroke-width="1"/><path d="M214.4,40h-3.2a1.6,1.6,0,0,1-1.6-1.6h0V35.2a1.6,1.6,0,0,1,1.6-1.6h3.2a1.6,1.6,0,0,1,1.6,1.6h0v3.2a1.6,1.6,0,0,1-1.6,1.6Z" fill="none" stroke="#586074" stroke-linecap="round" stroke-linejoin="round" stroke-width="1"/><rect width="24" height="24" transform="translate(108 20)" fill="none"/><path d="M127.41,33.968a1.048,1.048,0,0,1-.522-1.132,7.4,7.4,0,0,0,0-2.263,1.194,1.194,0,0,1,.522-1.132,1.251,1.251,0,0,0,.435-1.567l-.609-1.045a1.251,1.251,0,0,0-1.567-.435,1.043,1.043,0,0,1-1.219-.087,5.706,5.706,0,0,0-2-1.132,1.131,1.131,0,0,1-.7-1.044A1.152,1.152,0,0,0,120.618,23H119.4a1.152,1.152,0,0,0-1.132,1.132,1.131,1.131,0,0,1-.7,1.044,9.135,9.135,0,0,0-2,1.132,1.18,1.18,0,0,1-1.306.087,1.117,1.117,0,0,0-1.48.435l-.609,1.045a1.161,1.161,0,0,0,.435,1.567,1.048,1.048,0,0,1,.522,1.132c0,.435-.087.783-.087,1.132a5,5,0,0,0,.087,1.132,1.192,1.192,0,0,1-.522,1.132,1.091,1.091,0,0,0-.5,1.46c.019.037.039.072.061.107l.609,1.045a1.249,1.249,0,0,0,1.567.435,1.192,1.192,0,0,1,1.306.087,8.533,8.533,0,0,0,1.915,1.132,1.132,1.132,0,0,1,.7,1.044v.087a1.152,1.152,0,0,0,1.132,1.132h1.219a1.152,1.152,0,0,0,1.132-1.132,1.131,1.131,0,0,1,.7-1.044,5.323,5.323,0,0,0,1.915-1.132,1.053,1.053,0,0,1,1.219-.087,1.161,1.161,0,0,0,1.567-.435l.609-1.044a1.087,1.087,0,0,0-.158-1.528A1.071,1.071,0,0,0,127.41,33.968Zm-7.4,1.219a3.482,3.482,0,1,1,3.482-3.482h0a3.492,3.492,0,0,1-3.481,3.481Z" fill="none" stroke="#586074" stroke-linecap="round" stroke-linejoin="round" stroke-width="1"/><rect width="24" height="24" transform="translate(284 152)" fill="none"/><path d="M304.7,166.6a1.2,1.2,0,0,1-.6-1.3,8.521,8.521,0,0,0,0-2.6,1.371,1.371,0,0,1,.6-1.3,1.435,1.435,0,0,0,.5-1.8l-.7-1.2a1.436,1.436,0,0,0-1.8-.5,1.2,1.2,0,0,1-1.4-.1,6.522,6.522,0,0,0-2.3-1.3,1.3,1.3,0,0,1-.8-1.2,1.323,1.323,0,0,0-1.3-1.3h-1.4a1.323,1.323,0,0,0-1.3,1.3,1.3,1.3,0,0,1-.8,1.2,10.433,10.433,0,0,0-2.3,1.3,1.358,1.358,0,0,1-1.5.1,1.282,1.282,0,0,0-1.7.5l-.7,1.2a1.335,1.335,0,0,0,.5,1.8,1.2,1.2,0,0,1,.6,1.3c0,.5-.1.9-.1,1.3a5.669,5.669,0,0,0,.1,1.3,1.371,1.371,0,0,1-.6,1.3,1.253,1.253,0,0,0-.57,1.676,1.159,1.159,0,0,0,.07.124l.7,1.2a1.435,1.435,0,0,0,1.8.5,1.371,1.371,0,0,1,1.5.1,9.753,9.753,0,0,0,2.2,1.3,1.3,1.3,0,0,1,.8,1.2v.1a1.323,1.323,0,0,0,1.3,1.3h1.4a1.323,1.323,0,0,0,1.3-1.3,1.3,1.3,0,0,1,.8-1.2,6.1,6.1,0,0,0,2.2-1.3,1.211,1.211,0,0,1,1.4-.1,1.334,1.334,0,0,0,1.8-.5l.7-1.2a1.249,1.249,0,0,0-.179-1.756A1.2,1.2,0,0,0,304.7,166.6Zm-8.5,1.4a4,4,0,1,1,4-4A4,4,0,0,1,296.2,168Z" fill="none" stroke="#fff" stroke-linecap="round" stroke-linejoin="round" stroke-width="1.75"/><rect width="24" height="24" transform="translate(284 64)" fill="none"/><path d="M300.8,84h-9.6a3.209,3.209,0,0,1-3.2-3.2v-8a3.209,3.209,0,0,1,3.2-3.2h9.6a3.209,3.209,0,0,1,3.2,3.2v8A3.209,3.209,0,0,1,300.8,84Z" fill="none" stroke="#586074" stroke-linecap="round" stroke-linejoin="round" stroke-width="1"/><path d="M300,68v3.2" fill="#586074" stroke="#586074" stroke-linecap="round" stroke-linejoin="round" stroke-width="1"/><path d="M292,68v3.2" fill="#586074" stroke="#586074" stroke-linecap="round" stroke-linejoin="round" stroke-width="1"/><path d="M292,76a.8.8,0,1,0-.8-.8.8.8,0,0,0,.8.8Z" fill="#586074"/><path d="M300,76a.8.8,0,1,0-.8-.8.8.8,0,0,0,.8.8Z" fill="#586074"/><path d="M296,76a.8.8,0,1,0-.8-.8.8.8,0,0,0,.8.8Z" fill="#586074"/><path d="M292,80a.8.8,0,1,0-.8-.8.8.8,0,0,0,.8.8Z" fill="#586074"/><path d="M300,80a.8.8,0,1,0-.8-.8.8.8,0,0,0,.8.8Z" fill="#586074"/><path d="M296,80a.8.8,0,1,0-.8-.8.8.8,0,0,0,.8.8Z" fill="#586074"/><rect width="24" height="24" transform="translate(416 108)" fill="none"/><path d="M431.44,128h-6.72a1.636,1.636,0,0,1-1.6-1.44l-1.44-12.16h12.8l-1.44,12.16A1.7,1.7,0,0,1,431.44,128Z" fill="none" stroke="#586074" stroke-linecap="round" stroke-linejoin="round" stroke-width="1"/><path d="M420,114.4h16" fill="none" stroke="#586074" stroke-linecap="round" stroke-linejoin="round" stroke-width="1"/><path d="M428,117.6v7.2" fill="none" stroke="#586074" stroke-linecap="round" stroke-linejoin="round" stroke-width="1"/><path d="M430.4,117.6v7.2" fill="none" stroke="#586074" stroke-linecap="round" stroke-linejoin="round" stroke-width="1"/><path d="M425.6,117.6v7.2" fill="none" stroke="#586074" stroke-linecap="round" stroke-linejoin="round" stroke-width="1"/><path d="M424,114.4l1.6-2.4h4.8l1.6,2.4" fill="none" stroke="#586074" stroke-linecap="round" stroke-linejoin="round" stroke-width="1"/><rect width="24" height="24" transform="translate(460 108)" fill="none"/><path d="M475.44,128h-6.72a1.636,1.636,0,0,1-1.6-1.44l-1.44-12.16h12.8l-1.44,12.16A1.7,1.7,0,0,1,475.44,128Z" fill="none" stroke="#ff3131" stroke-linecap="round" stroke-linejoin="round" stroke-width="1"/><path d="M464,114.4h16" fill="none" stroke="#ff3131" stroke-linecap="round" stroke-linejoin="round" stroke-width="1"/><path d="M472,117.6v7.2" fill="none" stroke="#ff3131" stroke-linecap="round" stroke-linejoin="round" stroke-width="1"/><path d="M474.4,117.6v7.2" fill="none" stroke="#ff3131" stroke-linecap="round" stroke-linejoin="round" stroke-width="1"/><path d="M469.6,117.6v7.2" fill="none" stroke="#ff3131" stroke-linecap="round" stroke-linejoin="round" stroke-width="1"/><path d="M468,114.4l1.6-2.4h4.8l1.6,2.4" fill="none" stroke="#ff3131" stroke-linecap="round" stroke-linejoin="round" stroke-width="1"/><rect width="24" height="24" transform="translate(64 20)" fill="none"/><path d="M76,40H69.6A1.6,1.6,0,0,1,68,38.4h0V32a8,8,0,1,1,8.157,8Z" fill="none" stroke="#586074" stroke-linecap="round" stroke-linejoin="round" stroke-width="1"/><path d="M72,32.8a.8.8,0,1,0-.8-.8.8.8,0,0,0,.8.8Z" fill="#586074"/><path d="M80,32.8a.8.8,0,1,0-.8-.8.8.8,0,0,0,.8.8Z" fill="#586074"/><path d="M76,32.8a.8.8,0,1,0-.8-.8.8.8,0,0,0,.8.8Z" fill="#586074"/><rect width="24" height="24" transform="translate(372 416)" fill="none"/><path d="M388.8,436h-9.6a3.209,3.209,0,0,1-3.2-3.2v-9.6a3.209,3.209,0,0,1,3.2-3.2h9.6a3.209,3.209,0,0,1,3.2,3.2v9.6A3.209,3.209,0,0,1,388.8,436Z" fill="none" stroke="#586074" stroke-linecap="round" stroke-linejoin="round" stroke-width="1"/><path d="M384,431.2v-6.4" fill="none" stroke="#586074" stroke-linecap="round" stroke-linejoin="round" stroke-width="1"/><path d="M387.2,428h-6.4" fill="none" stroke="#586074" stroke-linecap="round" stroke-linejoin="round" stroke-width="1"/><rect width="24" height="24" transform="translate(416 416)" fill="none"/><path d="M432.8,436h-9.6a3.209,3.209,0,0,1-3.2-3.2v-9.6a3.209,3.209,0,0,1,3.2-3.2h9.6a3.209,3.209,0,0,1,3.2,3.2v9.6A3.209,3.209,0,0,1,432.8,436Z" fill="none" stroke="#4262f0" stroke-linecap="round" stroke-linejoin="round" stroke-width="1"/><path d="M428,431.2v-6.4" fill="none" stroke="#4262f0" stroke-linecap="round" stroke-linejoin="round" stroke-width="1"/><path d="M431.2,428h-6.4" fill="none" stroke="#4262f0" stroke-linecap="round" stroke-linejoin="round" stroke-width="1"/><rect width="24" height="24" transform="translate(372 372)" fill="none"/><path d="M387.6,390h-7.2a2.407,2.407,0,0,1-2.4-2.4v-7.2a2.407,2.407,0,0,1,2.4-2.4h7.2a2.407,2.407,0,0,1,2.4,2.4v7.2A2.407,2.407,0,0,1,387.6,390Z" fill="none" stroke="#4262f0" stroke-linecap="round" stroke-linejoin="round" stroke-width="1"/><path d="M384,386.4v-4.8" fill="none" stroke="#4262f0" stroke-linecap="round" stroke-linejoin="round" stroke-width="1"/><path d="M386.4,384h-4.8" fill="none" stroke="#4262f0" stroke-linecap="round" stroke-linejoin="round" stroke-width="1"/><rect width="24" height="24" transform="translate(416 372)" fill="none"/><path d="M431.6,390h-7.2a2.407,2.407,0,0,1-2.4-2.4v-7.2a2.407,2.407,0,0,1,2.4-2.4h7.2a2.407,2.407,0,0,1,2.4,2.4v7.2A2.407,2.407,0,0,1,431.6,390Z" fill="none" stroke="#4262f0" stroke-linecap="round" stroke-linejoin="round" stroke-width="1"/><path d="M430.4,384h-4.8" fill="none" stroke="#4262f0" stroke-linecap="round" stroke-linejoin="round" stroke-width="1"/><rect width="24" height="24" transform="translate(240 416)" fill="none"/><path d="M258,438H246a4.013,4.013,0,0,1-4-4V422a4.013,4.013,0,0,1,4-4h12a4.013,4.013,0,0,1,4,4v12A4.013,4.013,0,0,1,258,438Z" fill="none" stroke="#d32c63" stroke-linecap="round" stroke-linejoin="round" stroke-width="1"/><path d="M254.9,430.8l-5.7-5.6" fill="none" stroke="#d32c63" stroke-linecap="round" stroke-linejoin="round" stroke-width="1"/><path d="M254.9,425.2l-5.7,5.6" fill="none" stroke="#d32c63" stroke-linecap="round" stroke-linejoin="round" stroke-width="1"/><rect width="24" height="24" transform="translate(284 416)" fill="none"/><path d="M290,438h12a4.013,4.013,0,0,0,4-4V422a4.013,4.013,0,0,0-4-4H290a4.013,4.013,0,0,0-4,4v12A4.013,4.013,0,0,0,290,438Z" fill="none" stroke="#fff" stroke-linecap="round" stroke-linejoin="round" stroke-width="1"/><path d="M297.2,432.3,293,428l4.2-4.2" fill="none" stroke="#fff" stroke-linecap="round" stroke-linejoin="round" stroke-width="1"/><rect width="24" height="24" transform="translate(328 416)" fill="none"/><path d="M346,438H334a4.013,4.013,0,0,1-4-4V422a4.013,4.013,0,0,1,4-4h12a4.013,4.013,0,0,1,4,4v12a3.949,3.949,0,0,1-3.9,4Z" fill="none" stroke="#fff" stroke-linecap="round" stroke-linejoin="round" stroke-width="1"/><path d="M338.8,432.3,343,428l-4.2-4.2" fill="none" stroke="#fff" stroke-linecap="round" stroke-linejoin="round" stroke-width="1"/><rect width="24" height="24" transform="translate(20 372)" fill="none"/><path d="M41.075,383.4a11.086,11.086,0,0,0-9.1-4.9,10.713,10.713,0,0,0-9.1,4.9,1.8,1.8,0,0,0,0,2.2,11.091,11.091,0,0,0,9.1,4.9,10.715,10.715,0,0,0,9.1-4.9A2.167,2.167,0,0,0,41.075,383.4Zm-9.2,4.1a3,3,0,1,1,3-3,2.946,2.946,0,0,1-2.891,3C31.948,387.5,31.911,387.5,31.875,387.5Z" fill="none" stroke="#4262f0" stroke-linecap="round" stroke-linejoin="round" stroke-width="1"/><rect width="24" height="24" transform="translate(64 372)" fill="none"/><path d="M85.575,382.436a11.091,11.091,0,0,0-9.1-4.9,10.713,10.713,0,0,0-9.1,4.9,1.8,1.8,0,0,0,0,2.2,11.091,11.091,0,0,0,9.1,4.9,10.713,10.713,0,0,0,9.1-4.9A2.167,2.167,0,0,0,85.575,382.436Z" fill="none" stroke="#afafaf" stroke-linecap="round" stroke-linejoin="round" stroke-width="1"/><path d="M83.974,376c-.214.285-15.073,15.073-15.073,15.073" fill="none" stroke="#afafaf" stroke-linecap="round" stroke-width="1"/><rect width="24" height="24" transform="translate(20 20)" fill="none"/><circle cx="8" cy="8" r="8" transform="translate(24 24)" fill="none" stroke="#586074" stroke-width="1"/><path d="M32,40a8,8,0,0,1-6.08-2.8,8.029,8.029,0,0,1,3.315-2.31,4,4,0,0,0,5.53,0A8.029,8.029,0,0,1,38.08,37.2,8,8,0,0,1,32,40Z" fill="none" stroke="#586074" stroke-width="1"/><circle cx="4" cy="4" r="4" transform="translate(28 28)" fill="none" stroke="#586074" stroke-width="1"/><rect width="24" height="24" transform="translate(284 196)" fill="none"/><path d="M304.7,210.6a1.2,1.2,0,0,1-.6-1.3,8.521,8.521,0,0,0,0-2.6,1.371,1.371,0,0,1,.6-1.3,1.435,1.435,0,0,0,.5-1.8l-.7-1.2a1.436,1.436,0,0,0-1.8-.5,1.2,1.2,0,0,1-1.4-.1,6.522,6.522,0,0,0-2.3-1.3,1.3,1.3,0,0,1-.8-1.2,1.323,1.323,0,0,0-1.3-1.3h-1.4a1.323,1.323,0,0,0-1.3,1.3,1.3,1.3,0,0,1-.8,1.2,10.433,10.433,0,0,0-2.3,1.3,1.358,1.358,0,0,1-1.5.1,1.282,1.282,0,0,0-1.7.5l-.7,1.2a1.335,1.335,0,0,0,.5,1.8,1.2,1.2,0,0,1,.6,1.3c0,.5-.1.9-.1,1.3a5.669,5.669,0,0,0,.1,1.3,1.371,1.371,0,0,1-.6,1.3,1.253,1.253,0,0,0-.57,1.676,1.159,1.159,0,0,0,.07.124l.7,1.2a1.435,1.435,0,0,0,1.8.5,1.371,1.371,0,0,1,1.5.1,9.753,9.753,0,0,0,2.2,1.3,1.3,1.3,0,0,1,.8,1.2v.1a1.323,1.323,0,0,0,1.3,1.3h1.4a1.323,1.323,0,0,0,1.3-1.3,1.3,1.3,0,0,1,.8-1.2,6.1,6.1,0,0,0,2.2-1.3,1.211,1.211,0,0,1,1.4-.1,1.334,1.334,0,0,0,1.8-.5l.7-1.2a1.249,1.249,0,0,0-.179-1.756A1.2,1.2,0,0,0,304.7,210.6Zm-8.5,1.4a4,4,0,1,1,4-4A4,4,0,0,1,296.2,212Z" fill="#fff"/><rect width="24" height="24" transform="translate(152 20)" fill="none"/><path d="M171.41,33.968a1.048,1.048,0,0,1-.522-1.132,7.4,7.4,0,0,0,0-2.263,1.192,1.192,0,0,1,.522-1.132,1.251,1.251,0,0,0,.435-1.567l-.609-1.045a1.251,1.251,0,0,0-1.567-.435,1.043,1.043,0,0,1-1.219-.087,5.691,5.691,0,0,0-2-1.132,1.131,1.131,0,0,1-.7-1.044A1.152,1.152,0,0,0,164.618,23H163.4a1.152,1.152,0,0,0-1.132,1.132,1.131,1.131,0,0,1-.7,1.044,9.094,9.094,0,0,0-2,1.132,1.18,1.18,0,0,1-1.306.087,1.117,1.117,0,0,0-1.48.435l-.609,1.045a1.161,1.161,0,0,0,.435,1.567,1.048,1.048,0,0,1,.522,1.132c0,.435-.087.783-.087,1.132a5,5,0,0,0,.087,1.132,1.194,1.194,0,0,1-.522,1.132,1.091,1.091,0,0,0-.5,1.46c.019.037.039.072.061.107l.609,1.045a1.25,1.25,0,0,0,1.567.435,1.192,1.192,0,0,1,1.306.087,8.5,8.5,0,0,0,1.915,1.132,1.132,1.132,0,0,1,.7,1.045v.087a1.152,1.152,0,0,0,1.132,1.132h1.219a1.152,1.152,0,0,0,1.132-1.132,1.132,1.132,0,0,1,.7-1.045,5.315,5.315,0,0,0,1.915-1.132,1.053,1.053,0,0,1,1.219-.087,1.161,1.161,0,0,0,1.567-.435l.609-1.044a1.087,1.087,0,0,0-.158-1.528A1.07,1.07,0,0,0,171.41,33.968Zm-7.4,1.219a3.482,3.482,0,1,1,3.482-3.482h0a3.492,3.492,0,0,1-3.481,3.481Z" fill="#586074"/><rect width="24" height="24" transform="translate(284 20)" fill="none"/><rect width="16" height="16" rx="4" transform="translate(288 24)" fill="none" stroke="#586074" stroke-width="1"/><path d="M293.6,24V40" fill="none" stroke="#586074" stroke-width="1"/><path d="M298.4,24V40" fill="none" stroke="#586074" stroke-width="1"/><rect width="24" height="24" transform="translate(328 108)" fill="none"/><path d="M337.5,125.3a2.7,2.7,0,1,0,5.4,0Z" fill="none" stroke="#586074" stroke-linecap="round" stroke-linejoin="round" stroke-width="1"/><path d="M345.6,121.7v-3.6a5.4,5.4,0,0,0-10.8-.017V121.7a1.8,1.8,0,0,0,0,3.6h10.8a1.8,1.8,0,0,0,0-3.6Z" fill="none" stroke="#586074" stroke-linecap="round" stroke-linejoin="round" stroke-width="1"/><path d="M340.2,110v2.7" fill="none" stroke="#586074" stroke-linecap="round" stroke-linejoin="round" stroke-width="1"/><rect width="24" height="24" transform="translate(328 20)" fill="none"/><path d="M348,36.8a3.2,3.2,0,0,1-3.2,3.2h-9.6a3.2,3.2,0,0,1-3.2-3.2h0V27.2a3.2,3.2,0,0,1,3.2-3.2h0" fill="none" stroke="#586074" stroke-linecap="round" stroke-linejoin="round" stroke-width="1"/><path d="M348,34v2.8a3.2,3.2,0,0,1-3.2,3.2h-9.6a3.2,3.2,0,0,1-3.2-3.2h0V27.2a3.2,3.2,0,0,1,3.2-3.2H338" fill="none" stroke="#586074" stroke-linecap="round" stroke-linejoin="round" stroke-width="1"/><path d="M342,24h4.4a1.6,1.6,0,0,1,1.6,1.6V30" fill="none" stroke="#586074" stroke-linecap="round" stroke-linejoin="round" stroke-width="1"/><line y1="9.915" x2="9.915" transform="translate(337.6 24.485)" fill="none" stroke="#586074" stroke-linecap="round" stroke-linejoin="round" stroke-width="1"/><rect width="24" height="24" transform="translate(64 64)" fill="none"/><path d="M76.07,81.6a.8.8,0,1,0-.8-.8.8.8,0,0,0,.8.8Z" fill="#586074"/><path d="M72.8,74.343c0-3.182,4.118-4.306,5.99-1.685a2.766,2.766,0,0,1-1.5,4.3c-.842.281-1.4.655-1.31,1.31" fill="none" stroke="#586074" stroke-linecap="round" stroke-miterlimit="10" stroke-width="1"/><circle cx="8" cy="8" r="8" transform="translate(68 68)" fill="none" stroke="#586074" stroke-width="1"/><rect width="24" height="24" transform="translate(372 152)" fill="none"/><path d="M384.087,171a1,1,0,1,0-1-1A1,1,0,0,0,384.087,171Z" fill="#fff"/><path d="M380,161.929c0-3.978,5.147-5.382,7.487-2.106,1.521,2.223.351,4.562-1.872,5.381-1.053.351-1.755.819-1.638,1.638" fill="none" stroke="#fff" stroke-linecap="round" stroke-miterlimit="10" stroke-width="1.75"/><circle cx="10" cy="10" r="10" transform="translate(374 154)" fill="none" stroke="#fff" stroke-width="1.75"/><rect width="24" height="24" transform="translate(152 64)" fill="none"/><path d="M156,83.186v-2.3a.814.814,0,0,1,.239-.576L168.07,68.477a1.628,1.628,0,0,1,2.3,0l1.151,1.151a1.628,1.628,0,0,1,0,2.3L159.692,83.757a.814.814,0,0,1-.576.238h-2.3A.815.815,0,0,1,156,83.186Z" fill="none" stroke="#586074" stroke-miterlimit="10" stroke-width="1"/><line x2="3.453" y2="3.453" transform="translate(166.73 69.817)" fill="none" stroke="#586074" stroke-miterlimit="10" stroke-width="1"/><line x2="3.453" y2="3.453" transform="translate(165.003 71.445)" fill="none" stroke="#586074" stroke-miterlimit="10" stroke-width="1"/><line x2="3.453" y2="3.453" transform="translate(156.864 79.584)" fill="none" stroke="#586074" stroke-miterlimit="10" stroke-width="1"/><rect width="24" height="24" transform="translate(196 64)" fill="none"/><path d="M210.2,66a1,1,0,0,1,1,1v6.04h2.7a1.1,1.1,0,0,1,.833,1.828l-5.9,6.766a1.1,1.1,0,0,1-1.552.112,1.076,1.076,0,0,1-.112-.112l-5.894-6.766a1.1,1.1,0,0,1,.832-1.828H204.8V67a1,1,0,0,1,1-1h4.4Z" fill="none" stroke="#586074" stroke-linejoin="round" stroke-width="1"/><path d="M200,85.272h16" fill="none" stroke="#586074" stroke-linecap="round" stroke-width="1"/><path d="M342.2,506.364a1,1,0,0,1,1,1v6.04h2.695a1.1,1.1,0,0,1,.833,1.828l-5.9,6.766a1.1,1.1,0,0,1-1.552.112,1.072,1.072,0,0,1-.112-.112l-5.894-6.766a1.1,1.1,0,0,1,.832-1.828h2.7v-6.04a1,1,0,0,1,1-1h4.4Z" fill="none" stroke="#4262f0" stroke-linejoin="round" stroke-width="1"/><path d="M332,525.636h16" fill="none" stroke="#4262f0" stroke-linecap="round" stroke-width="1"/><rect width="24" height="24" transform="translate(328 64)" fill="none"/><path d="M337,68h6a1,1,0,0,1,1,1v1.4h-8V69A1,1,0,0,1,337,68Z" fill="none" stroke="#586074" stroke-width="1"/><path d="M335.2,80.8H334a2,2,0,0,1-2-2V72.4a2,2,0,0,1,2-2h12a2,2,0,0,1,2,2v6.4a2,2,0,0,1-2,2h-1.2V77.6a2,2,0,0,0-2-2h-5.6a2,2,0,0,0-2,2v3.2Z" fill="none" stroke="#586074" stroke-width="1"/><rect width="9.6" height="8" rx="2" transform="translate(335.2 75.6)" fill="none" stroke="#586074" stroke-width="1"/><path d="M345.6,74.2a.8.8,0,1,0-.8-.8.8.8,0,0,0,.8.8Z" fill="#586074"/><rect width="24" height="24" transform="translate(372 64)" fill="none"/><circle cx="10" cy="10" r="10" transform="translate(374 66)" fill="none" stroke="#586074" stroke-width="1"/><path d="M387.458,77.911l.014.041a2.99,2.99,0,0,1-.985,2.345,3.763,3.763,0,0,1-2.673.944,3.509,3.509,0,0,1-2.751-1.2A4.4,4.4,0,0,1,380,77.009v-1.77a4.413,4.413,0,0,1,1.063-3.042,3.5,3.5,0,0,1,2.751-1.2,3.867,3.867,0,0,1,2.687.9,2.975,2.975,0,0,1,.971,2.382l-.014.041h-1.292a2.22,2.22,0,0,0-.615-1.654,2.363,2.363,0,0,0-1.736-.608,2.12,2.12,0,0,0-1.8.909,3.7,3.7,0,0,0-.67,2.256v1.784a3.723,3.723,0,0,0,.67,2.27,2.12,2.12,0,0,0,1.8.909,2.373,2.373,0,0,0,1.736-.6,2.239,2.239,0,0,0,.615-1.671Z" fill="#586074"/><rect width="24" height="24" transform="translate(416 64)" fill="none"/><path d="M425.456,68.07a3,3,0,0,1,5.088,0l7.587,12.14a3,3,0,0,1-2.544,4.59H420.413a3,3,0,0,1-2.544-4.59Z" fill="none" stroke="#ffae04" stroke-width="1"/><path d="M427.1,72.883a.851.851,0,0,1,1.7-.082c0,.027,0,.055,0,.082l-.194,5.054a.656.656,0,0,1-1.312,0Zm1.8,7.566a.947.947,0,1,1-.947-.947.947.947,0,0,1,.947.947Z" fill="#ffae04" fill-rule="evenodd"/><rect width="24" height="24" transform="translate(196 108)" fill="none"/><path d="M210.277,117v7.8" fill="none" stroke="#586074" stroke-linecap="round" stroke-width="1"/><path d="M211.052,127.835l1.373-1.849a.93.93,0,0,0-.746-1.484h-2.746a.93.93,0,0,0-.747,1.484l1.373,1.849a.93.93,0,0,0,1.3.192A.92.92,0,0,0,211.052,127.835Z" fill="#586074"/><path d="M205.333,123.211v-7.8" fill="none" stroke="#586074" stroke-linecap="round" stroke-width="1"/><path d="M204.558,112.375l-1.373,1.849a.93.93,0,0,0,.746,1.484h2.746a.93.93,0,0,0,.747-1.484l-1.373-1.849a.93.93,0,0,0-1.3-.192A.92.92,0,0,0,204.558,112.375Z" fill="#586074"/><rect width="24" height="24" transform="translate(64 108)" fill="none"/><path d="M82.4,118.4H79.2a1.6,1.6,0,0,1-1.6-1.6h0v-3.2a1.6,1.6,0,0,1,1.6-1.6h3.2a1.6,1.6,0,0,1,1.6,1.6h0v3.2a1.6,1.6,0,0,1-1.6,1.6Z" fill="none" stroke="#586074" stroke-linecap="round" stroke-linejoin="round" stroke-width="1"/><path d="M82.4,128H79.2a1.6,1.6,0,0,1-1.6-1.6h0v-3.2a1.6,1.6,0,0,1,1.6-1.6h3.2a1.6,1.6,0,0,1,1.6,1.6h0v3.2a1.6,1.6,0,0,1-1.6,1.6Z" fill="none" stroke="#586074" stroke-linecap="round" stroke-linejoin="round" stroke-width="1"/><path d="M73.942,124.033l-.778-.622a.47.47,0,0,0-.764.366v1.245a.47.47,0,0,0,.764.366l.778-.622a.47.47,0,0,0,.072-.661A.446.446,0,0,0,73.942,124.033Z" fill="#586074"/><path d="M69.6,116a1.6,1.6,0,0,0-1.6,1.6v5.2a1.6,1.6,0,0,0,1.6,1.6h3.2" fill="none" stroke="#586074" stroke-linecap="round" stroke-miterlimit="10" stroke-width="1"/><line x1="0.6" transform="translate(70.8 116)" fill="none" stroke="#586074" stroke-linecap="round" stroke-miterlimit="10" stroke-width="1"/><line x1="0.6" transform="translate(72.6 116)" fill="none" stroke="#586074" stroke-linecap="round" stroke-miterlimit="10" stroke-width="1"/><rect width="24" height="24" transform="translate(152 108)" fill="none"/><rect width="12" height="12" rx="4" transform="translate(160 112)" fill="none" stroke="#586074" stroke-width="1"/><path d="M164,128h-4a4,4,0,0,1-4-4v-4a4,4,0,0,1,4-4v4a4.005,4.005,0,0,0,4,4h4A4,4,0,0,1,164,128Z" fill="none" stroke="#586074" stroke-width="1"/><path d="M166,115.6v4.8" fill="none" stroke="#586074" stroke-linecap="round" stroke-width="1"/><path d="M168.4,118h-4.8" fill="none" stroke="#586074" stroke-linecap="round" stroke-width="1"/><rect width="24" height="24" transform="translate(240 108)" fill="none"/><rect width="12" height="12" rx="4" transform="translate(248 116)" fill="none" stroke="#586074" stroke-width="1"/><path d="M244,120v-4a4,4,0,0,1,4-4h4a4,4,0,0,1,4,4h-4a4.005,4.005,0,0,0-4,4v4A4,4,0,0,1,244,120Z" fill="none" stroke="#586074" stroke-width="1"/><path d="M256.4,120.4h-4.8" fill="none" stroke="#586074" stroke-linecap="round" stroke-width="1"/><path d="M256.4,123.6h-4.8" fill="none" stroke="#586074" stroke-linecap="round" stroke-width="1"/><rect width="24" height="24" transform="translate(284 108)" fill="none"/><path d="M297.6,113.6h5.12a1.35,1.35,0,0,1,1.28,1.411v9.876a1.35,1.35,0,0,1-1.28,1.411H297.6" fill="none" stroke="#586074" stroke-linecap="round" stroke-miterlimit="10" stroke-width="1"/><path d="M304,118.4h-6.24" fill="none" stroke="#586074" stroke-width="1"/><path d="M304,122.4h-6.24" fill="none" stroke="#586074" stroke-width="1"/><path d="M294.106,116.917l-3.271,6.126" fill="none" stroke="#586074" stroke-linecap="round" stroke-width="1"/><path d="M294.99,124.082l-4.154-6.759" fill="none" stroke="#586074" stroke-linecap="round" stroke-width="1"/><path d="M295.737,127.4l-6.4-1.066A1.6,1.6,0,0,1,288,124.758v-10.09a1.6,1.6,0,0,1,1.337-1.578l6.4-1.066a1.6,1.6,0,0,1,1.841,1.315,1.549,1.549,0,0,1,.022.263v12.222a1.6,1.6,0,0,1-1.6,1.6A1.657,1.657,0,0,1,295.737,127.4Z" fill="none" stroke="#586074" stroke-linecap="round" stroke-miterlimit="10" stroke-width="1"/><rect width="24" height="24" transform="translate(372 108)" fill="none"/><path d="M384.286,110.428a.429.429,0,0,0-.857,0v2.589a5.165,5.165,0,0,0-4.714,5.126v3.429A1.714,1.714,0,1,0,378.7,125h2.155a3,3,0,0,0,6,0H389a1.714,1.714,0,1,0,.012-3.428H389v-3.429a5.165,5.165,0,0,0-4.714-5.126Zm-.429,16.714a2.1,2.1,0,0,1-2.143-2.056q0-.043,0-.087H386a2.1,2.1,0,0,1-2.055,2.144h-.088Z" fill="#4262f0" fill-rule="evenodd"/><rect width="24" height="24" transform="translate(328 152)" fill="none"/><path d="M346,174H334a4.013,4.013,0,0,1-4-4V158a4.013,4.013,0,0,1,4-4h12a4.013,4.013,0,0,1,4,4v12a3.949,3.949,0,0,1-3.9,4Z" fill="none" stroke="#fff" stroke-linecap="round" stroke-linejoin="round" stroke-width="1.75"/><path d="M335,169v-4" fill="none" stroke="#fff" stroke-linecap="round" stroke-linejoin="round" stroke-width="1.75"/><path d="M340,169V159" fill="none" stroke="#fff" stroke-linecap="round" stroke-linejoin="round" stroke-width="1.75"/><path d="M345,169v-7" fill="none" stroke="#fff" stroke-linecap="round" stroke-linejoin="round" stroke-width="1.75"/><rect width="24" height="24" transform="translate(328 196)" fill="none"/><path d="M346,198H334a4,4,0,0,0-4,4v12a4,4,0,0,0,4,4h12a4,4,0,0,0,4-4V202A4,4,0,0,0,346,198Zm-10.12,15a.88.88,0,0,1-1.76,0v-4a.88.88,0,0,1,1.76,0Zm5,0a.88.88,0,0,1-1.76,0V203a.88.88,0,0,1,1.76,0Zm5,0a.88.88,0,0,1-1.76,0v-7a.88.88,0,0,1,1.76,0Z" fill="#fff"/><rect width="24" height="24" transform="translate(240 152)" fill="none"/><circle cx="8.826" cy="8.826" r="8.826" transform="translate(242 154)" fill="none" stroke="#fff" stroke-miterlimit="10" stroke-width="1.75"/><line x2="4.912" y2="4.912" transform="translate(257.088 169.046)" fill="none" stroke="#fff" stroke-linecap="round" stroke-miterlimit="10" stroke-width="1.75"/><path d="M250.6,158.038a5.287,5.287,0,0,1,5.086,5.086" fill="none" stroke="#fff" stroke-linecap="round" stroke-miterlimit="10" stroke-width="1.75"/><rect width="24" height="24" transform="translate(240 196)" fill="none"/><path d="M262.11,216.83l-4.59-4.59a9.428,9.428,0,1,0-1.24,1.24l4.6,4.59a.873.873,0,0,0,1.23-1.24Zm-6.92-9.34a.88.88,0,0,1-.88-.84,4.421,4.421,0,0,0-4.24-4.24.873.873,0,0,1-.84-.9V201.5a.841.841,0,0,1,.84-.842l.06,0a6.184,6.184,0,0,1,5.93,5.93.866.866,0,0,1-.829.9h-.041Z" fill="#fff"/><rect width="24" height="24" transform="translate(196 152)" fill="none"/><rect width="18" height="14" rx="1" transform="translate(198.756 157)" fill="none"/><rect width="19.75" height="15.75" rx="1.875" transform="translate(197.881 156.125)" fill="none" stroke="#fff" stroke-width="1.75"/><path d="M198,164h19.452" fill="none" stroke="#fff" stroke-width="1.75"/><path d="M205.414,159.96h8.454" fill="none" stroke="#fff" stroke-linecap="round" stroke-width="1.75"/><path d="M205.414,168.041h8.454" fill="none" stroke="#fff" stroke-linecap="round" stroke-width="1.75"/><circle cx="0.75" cy="0.75" r="0.75" transform="translate(200.756 159.21)" fill="#fff"/><circle cx="0.125" cy="0.125" r="0.125" transform="translate(201.381 159.835)" fill="none" stroke="#fff" stroke-width="1.75"/><circle cx="0.75" cy="0.75" r="0.75" transform="translate(200.756 167.21)" fill="#fff"/><circle cx="0.125" cy="0.125" r="0.125" transform="translate(201.381 167.835)" fill="none" stroke="#fff" stroke-width="1.75"/><rect width="24" height="24" transform="translate(196 196)" fill="none"/><path d="M216,200H200a2,2,0,0,0-2,2v5.68h20V202A2,2,0,0,0,216,200Zm-14,5.18a1,1,0,1,1,1-1A1,1,0,0,1,202,205.18Zm12-.12h-8a.88.88,0,1,1,0-1.76h8a.88.88,0,1,1,0,1.76Z" fill="#fff"/><path d="M198,208.68v5.68a2,2,0,0,0,2,2h16a2,2,0,0,0,2-2v-5.68Zm4,4.5a1,1,0,1,1,1-1A1,1,0,0,1,202,213.18Zm12-.12h-8a.88.88,0,1,1,0-1.76h8a.88.88,0,1,1,0,1.76Z" fill="#fff"/><rect width="24" height="24" transform="translate(64 152)" fill="none"/><path d="M81.571,165.66l-.96-.02a5.385,5.385,0,0,0-5.08-3.9l-.66-.01-1.34-.02a5.429,5.429,0,0,0-5.23,3.82,3.9,3.9,0,0,0-3.27,3.71L65,171.11a2.268,2.268,0,0,0,.65,1.65,2.438,2.438,0,0,0,1.73.75l.76.01a2.837,2.837,0,0,0,2.65,1.89h.05a2.852,2.852,0,0,0,2.67-1.8l4.64.08a2.862,2.862,0,0,0,2.64,1.86h.05a2.859,2.859,0,0,0,2.66-1.77l1.27.02h.03a1.891,1.891,0,0,0,1.92-1.84l.02-1.16a4.908,4.908,0,0,0-1.39-3.52A5.371,5.371,0,0,0,81.571,165.66Zm3.4,6.27a.123.123,0,0,1-.17.12l-1.16-.02a2.834,2.834,0,0,0-.73-1.35,2.907,2.907,0,0,0-2.02-.88h-.05a2.546,2.546,0,0,0-.83.13H80a2.892,2.892,0,0,0-1.89,1.84.849.849,0,0,0-.05.17l-.26-.01-4.17-.07a2.288,2.288,0,0,0-.08-.28,2.911,2.911,0,0,0-.51-.89,2.868,2.868,0,0,0-2.15-1.03h-.05a2.755,2.755,0,0,0-.96.17,2.9,2.9,0,0,0-1.8,1.94l-.67-.01a.759.759,0,0,1-.5-.21.528.528,0,0,1-.16-.4l.03-1.88a2.107,2.107,0,0,1,1.29-1.86,2.293,2.293,0,0,1,.87-.2h.14l.74.01,9.23.15.88.01.87.02.74.01a3.6,3.6,0,0,1,2.55,1.09,3.148,3.148,0,0,1,.9,2.27Zm-3.35,1.56a1.038,1.038,0,0,1-.4.25.9.9,0,0,1-.4.06.989.989,0,0,1-.38-.07,1.209,1.209,0,0,1-.41-.27,1.068,1.068,0,0,1-.3-.62.548.548,0,0,1-.02-.18,1.142,1.142,0,0,1,.27-.69,1.075,1.075,0,0,1,.86-.42h.02a1.133,1.133,0,0,1,.79.35.388.388,0,0,1,.08.1,1.061,1.061,0,0,1,.23.66v.04a.467.467,0,0,1-.02.17,1.012,1.012,0,0,1-.32.62Zm-10-.14a1.166,1.166,0,0,1-.33.23h-.01a1.023,1.023,0,0,1-.46.08,1.115,1.115,0,0,1-.79-.34,1.066,1.066,0,0,1-.3-.65.757.757,0,0,1-.01-.15,1.064,1.064,0,0,1,.28-.72.444.444,0,0,1,.06-.07,1.216,1.216,0,0,1,.32-.22,1.174,1.174,0,0,1,.46-.1h.02a1.131,1.131,0,0,1,.85.42,1.067,1.067,0,0,1,.21.41.716.716,0,0,1,.05.3v.02a.762.762,0,0,1-.02.15,1.075,1.075,0,0,1-.33.64Zm1.44-9.86v2.03l-2.87-.04a3.394,3.394,0,0,1,.73-1,3.581,3.581,0,0,1,2.14-.99Zm.75,2.05v-2.08l1.69.03a3.625,3.625,0,0,1,3.23,2.12Z" fill="#fff"/><path d="M66.441,161.3l.7-.54,7.26-5.54,6.94,5.42,2.88,2.26,1.15.9a.911.911,0,0,0,.54.19.879.879,0,0,0,.54-1.57L82.7,159.482V154.11a.875.875,0,0,0-1.75,0v4h0L74.424,153l-9.04,6.92a.87.87,0,0,0,1.06,1.38Z" fill="#fff"/><rect width="24" height="24" transform="translate(64 196)" fill="none"/><path d="M80.771,210.53a4.493,4.493,0,0,0-.16-.89,5.427,5.427,0,0,0-5.08-3.9l-2-.03a5.426,5.426,0,0,0-5.23,3.82,4.158,4.158,0,0,0-.2.93,4.487,4.487,0,0,0-.04.53c0,.15,0,.29.01.43a5.4,5.4,0,0,0,2.31,4.09,1.178,1.178,0,0,1,.46-.1h.02a1.131,1.131,0,0,1,.85.42,1.067,1.067,0,0,1,.21.41,5.181,5.181,0,0,0,1.42.22l2,.03h.1a5.377,5.377,0,0,0,5.36-5.09,1.21,1.21,0,0,0,.01-.19A3.776,3.776,0,0,0,80.771,210.53Zm-5.4,4.21-2-.03a3.6,3.6,0,0,1-2.54-1.11,3.529,3.529,0,0,1-1.01-2.38,1.213,1.213,0,0,1-.01-.2,3.79,3.79,0,0,1,.07-.68,3.67,3.67,0,0,1,.31-.86,3.394,3.394,0,0,1,.73-1,3.592,3.592,0,0,1,2.58-1.02l2,.03a3.625,3.625,0,0,1,3.23,2.12,3.417,3.417,0,0,1,.27.89,3.106,3.106,0,0,1,.06.68,1.2,1.2,0,0,1-.01.19,3.6,3.6,0,0,1-3.68,3.37Z" fill="#fff"/><path d="M85.871,214.78l-.02,1.16a1.029,1.029,0,0,1-1.07.98l-1.08-.02-.87-.01-.89-.02a.467.467,0,0,0,.02-.17v-.04a1.061,1.061,0,0,0-.23-.66.388.388,0,0,0-.08-.1,1.133,1.133,0,0,0-.79-.35h-.02a1.075,1.075,0,0,0-.86.42,1.142,1.142,0,0,0-.27.69.548.548,0,0,0,.02.18l-.88-.02-.89-.01-4.25-.07-.88-.02-.88-.01a.752.752,0,0,0,.02-.15v-.02a.789.789,0,0,0-.05-.3,1.067,1.067,0,0,0-.21-.41,1.134,1.134,0,0,0-.85-.42h-.02a1.174,1.174,0,0,0-.46.1,1.216,1.216,0,0,0-.32.22.444.444,0,0,0-.06.07,1.066,1.066,0,0,0-.28.72.757.757,0,0,0,.01.15l-.88-.02-.88-.01-.57-.01a1.511,1.511,0,0,1-1.53-1.492v-.008l.04-1.87a3.01,3.01,0,0,1,2.19-2.8,3.247,3.247,0,0,1,.99-.13l.79.01,9.12.16,1.77.03.78.01a4.279,4.279,0,0,1,4.32,4.238Z" fill="#fff"/><path d="M80.031,217.46a1.068,1.068,0,0,1-.3-.62.548.548,0,0,1-.02-.18,1.142,1.142,0,0,1,.27-.69l-1-.02-.92-.01H77.8l-4.17-.08-.91-.01-1.01-.02a1.067,1.067,0,0,1,.21.41.789.789,0,0,1,.05.3v.02a.752.752,0,0,1-.02.15,1.075,1.075,0,0,1-.33.64,1.266,1.266,0,0,1-.34.23l1.26.02.97.01,4.64.08.98.02,1.31.02A1.209,1.209,0,0,1,80.031,217.46Zm5.32-6.18a5.371,5.371,0,0,0-3.78-1.62l-.96-.02-1.88-.03-8.54-.13-1.08-.02h-.07a3.68,3.68,0,0,0-.74.07,3.9,3.9,0,0,0-3.27,3.71L65,215.11a2.268,2.268,0,0,0,.65,1.65,2.438,2.438,0,0,0,1.73.75l.76.01.97.02,1.26.02a.992.992,0,0,1-.34-.24,1.063,1.063,0,0,1-.3-.65.757.757,0,0,1-.01-.15,1.066,1.066,0,0,1,.28-.72l-1.01-.01-.91-.02-.67-.01a.759.759,0,0,1-.5-.21.528.528,0,0,1-.16-.4l.03-1.88a2.076,2.076,0,0,1,1.29-1.85,2.257,2.257,0,0,1,.97-.21h.04l.74.01,9.23.15,1.75.03.74.01a3.6,3.6,0,0,1,2.55,1.09,3.148,3.148,0,0,1,.9,2.27l-.02,1.16a.162.162,0,0,1-.17.12l-1.16-.02-.91-.01-1-.02a1.061,1.061,0,0,1,.23.66v.04a.467.467,0,0,1-.02.17,1.012,1.012,0,0,1-.32.62,1.162,1.162,0,0,1-.41.25l1.31.02h.01l.97.02,1.27.02h.03a1.891,1.891,0,0,0,1.92-1.84l.02-1.16A4.908,4.908,0,0,0,85.351,211.28Z" fill="#fff"/><path d="M72.721,215.85a2.011,2.011,0,0,0-1.84-1.31,1.982,1.982,0,0,0-1.89,1.25,1.7,1.7,0,0,0-.15.71.757.757,0,0,0,.01.15,1.816,1.816,0,0,0,.26.89,2,2,0,0,0,3.43.06,2.038,2.038,0,0,0,.29-.88.757.757,0,0,0,.01-.15A2.126,2.126,0,0,0,72.721,215.85Zm-1.1,1.5a1.29,1.29,0,0,1-.34.23,1.068,1.068,0,0,1-.46.08,1.115,1.115,0,0,1-.79-.34,1.063,1.063,0,0,1-.3-.65.757.757,0,0,1-.01-.15,1.066,1.066,0,0,1,.28-.72.444.444,0,0,1,.06-.07,1.143,1.143,0,0,1,.78-.32h.02a1.131,1.131,0,0,1,.85.42,1.1,1.1,0,0,1,.26.71v.02a.752.752,0,0,1-.02.15A1.075,1.075,0,0,1,71.621,217.35Z" fill="#fff"/><path d="M73.631,215.86a2.865,2.865,0,0,0-5.55-.09,2.475,2.475,0,0,0-.11.72v.15a2.852,2.852,0,0,0,2.82,2.77h.05a2.852,2.852,0,0,0,2.67-1.8,2.891,2.891,0,0,0,.2-.87.757.757,0,0,0,.01-.15A2.9,2.9,0,0,0,73.631,215.86Zm-2.01,1.49a1.29,1.29,0,0,1-.34.23,1.068,1.068,0,0,1-.46.08,1.115,1.115,0,0,1-.79-.34,1.063,1.063,0,0,1-.3-.65.757.757,0,0,1-.01-.15,1.066,1.066,0,0,1,.28-.72.4.4,0,0,1,.06-.07,1.141,1.141,0,0,1,.78-.32h.02a1.131,1.131,0,0,1,.85.42,1.1,1.1,0,0,1,.26.71v.02a.752.752,0,0,1-.02.15,1.075,1.075,0,0,1-.33.64Z" fill="#fff"/><path d="M82.731,216.02a2.007,2.007,0,0,0-1.86-1.34,1.984,1.984,0,0,0-1.89,1.27,1.817,1.817,0,0,0-.14.69,1.087,1.087,0,0,0,.01.18,1.9,1.9,0,0,0,.28.89,1.983,1.983,0,0,0,1.67.97,2.011,2.011,0,0,0,1.72-.92h.01a2.092,2.092,0,0,0,.3-.87c0-.06.01-.12.01-.18A1.953,1.953,0,0,0,82.731,216.02Zm-1.11,1.47a1.162,1.162,0,0,1-.41.25.881.881,0,0,1-.39.06.989.989,0,0,1-.38-.07,1.209,1.209,0,0,1-.41-.27,1.068,1.068,0,0,1-.3-.62.576.576,0,0,1-.02-.18,1.142,1.142,0,0,1,.27-.69,1.077,1.077,0,0,1,.86-.42h.02a1.133,1.133,0,0,1,.79.35.388.388,0,0,1,.08.1,1.061,1.061,0,0,1,.23.66v.04a.467.467,0,0,1-.02.17A1.012,1.012,0,0,1,81.621,217.49Z" fill="#fff"/><path d="M83.641,216.03a2.838,2.838,0,0,0-.73-1.35,2.907,2.907,0,0,0-2.02-.88h-.05a2.883,2.883,0,0,0-2.78,2.14,2.6,2.6,0,0,0-.1.69v.18a2.906,2.906,0,0,0,2.83,2.74h.05a2.859,2.859,0,0,0,2.66-1.77,2.955,2.955,0,0,0,.2-.88.964.964,0,0,0,.01-.17A2.747,2.747,0,0,0,83.641,216.03Zm-2.02,1.46a1.162,1.162,0,0,1-.41.25.881.881,0,0,1-.39.06.989.989,0,0,1-.38-.07,1.209,1.209,0,0,1-.41-.27,1.068,1.068,0,0,1-.3-.62.548.548,0,0,1-.02-.18,1.142,1.142,0,0,1,.27-.69,1.075,1.075,0,0,1,.86-.42h.02a1.133,1.133,0,0,1,.79.35.388.388,0,0,1,.08.1,1.061,1.061,0,0,1,.23.66v.04a.467.467,0,0,1-.02.17,1.012,1.012,0,0,1-.32.62Z" fill="#fff"/><line y2="4.001" transform="translate(73.437 206.601)" fill="none" stroke="#fff" stroke-miterlimit="10" stroke-width="0.75"/><line y1="4.69" transform="translate(81.831 198.11)" fill="none"/><path d="M86.6,207.65a.875.875,0,0,1-.69.34.911.911,0,0,1-.54-.19l-4.03-3.16-6.94-5.42-7.96,6.08a.87.87,0,0,1-1.06-1.38l9.04-6.92,6.53,5.11v-4a.875.875,0,1,1,1.75,0h0v5.37l3.75,2.94a.876.876,0,0,1,.15,1.23Z" fill="#fff"/><rect width="24" height="24" transform="translate(20 152)" fill="none"/><rect width="20" height="15" rx="4" transform="translate(22 154)" fill="none" stroke="#fff" stroke-linecap="round" stroke-width="1.75"/><path d="M32,169v4.066" fill="none" stroke="#fff" stroke-linecap="round" stroke-width="1.75"/><path d="M28,173.366h8" fill="none" stroke="#fff" stroke-linecap="round" stroke-width="1.75"/><path d="M36.5,158.683l-3,5-3-4-3,4" fill="none" stroke="#fff" stroke-linecap="round" stroke-linejoin="round" stroke-width="1.75"/><rect width="24" height="24" transform="translate(416 460)" fill="none"/><rect width="24" height="24" transform="translate(20 196)" fill="none"/><path d="M32.5,213.317v4.066" fill="#fff" stroke="#fff" stroke-linecap="round" stroke-width="1.75"/><path d="M28.5,217.683h8" fill="#fff" stroke="#fff" stroke-linecap="round" stroke-width="1.75"/><path d="M38.5,198h-13a3.5,3.5,0,0,0-3.5,3.5v9a3.5,3.5,0,0,0,3.5,3.5h13a3.5,3.5,0,0,0,3.5-3.5v-9A3.5,3.5,0,0,0,38.5,198Zm-.8,5.52-3,4a.878.878,0,0,1-1.23.177.83.83,0,0,1-.09-.077l-2.29-2.29-2.39,3.19a.874.874,0,0,1-.7.36.837.837,0,0,1-.52-.18.869.869,0,0,1-.185-1.214l0-.006,3-4a.868.868,0,0,1,.64-.35.832.832,0,0,1,.68.25l2.29,2.29,2.39-3.19a.872.872,0,0,1,1.4,1.04Z" fill="#fff"/><rect width="24" height="24" transform="translate(108 152)" fill="none"/><path d="M125.439,154.5l4.379,17.515a2,2,0,0,1-1.941,2.485H113a2,2,0,0,1-1.941-2.485l4.379-17.515" fill="none" stroke="#fff" stroke-linecap="round" stroke-miterlimit="10" stroke-width="1.75"/><line y2="2" transform="translate(120.439 159)" fill="none" stroke="#fff" stroke-linecap="round" stroke-miterlimit="10" stroke-width="0.75"/><line y2="2" transform="translate(120.439 154)" fill="none" stroke="#fff" stroke-linecap="round" stroke-miterlimit="10" stroke-width="0.75"/><line y2="2" transform="translate(120.439 164)" fill="none" stroke="#fff" stroke-linecap="round" stroke-miterlimit="10" stroke-width="0.75"/><line y2="2" transform="translate(120.439 169)" fill="none" stroke="#fff" stroke-linecap="round" stroke-miterlimit="10" stroke-width="0.75"/><rect width="24" height="24" transform="translate(108 196)" fill="none"/><path d="M130.543,215.18l-4-16a2.877,2.877,0,0,0-2.79-2.18h-6.88a2.877,2.877,0,0,0-2.79,2.18l-4,16a2.879,2.879,0,0,0,.53,2.47,2.848,2.848,0,0,0,2.26,1.11h14.88a2.848,2.848,0,0,0,2.26-1.11A2.879,2.879,0,0,0,130.543,215.18Zm-9.73,1.2a.5.5,0,0,1-1,0v-2a.5.5,0,0,1,1,0Zm0-5a.5.5,0,0,1-1,0v-2a.5.5,0,0,1,1,0Zm0-5a.5.5,0,0,1-1,0v-2a.5.5,0,0,1,1,0Zm0-5a.5.5,0,0,1-1,0v-2a.5.5,0,0,1,1,0Z" fill="#fff"/><rect width="24" height="24" transform="translate(152 152)" fill="none"/><rect width="20" height="7" rx="2" transform="translate(154 154)" fill="none" stroke="#fff" stroke-miterlimit="10" stroke-width="1.75"/><path d="M157.8,161v1.75a1.25,1.25,0,0,0,1.25,1.25h3.7a1.25,1.25,0,0,1,1.25,1.25V168" fill="none" stroke="#fff" stroke-miterlimit="10" stroke-width="1.75"/><rect width="4" height="6" rx="1.25" transform="translate(162 168)" fill="none" stroke="#fff" stroke-miterlimit="10" stroke-width="1.75"/><rect width="24" height="24" transform="translate(152 196)" fill="none"/><rect width="20" height="7" rx="2" transform="translate(154 198)" fill="#fff" stroke="#fff" stroke-miterlimit="10" stroke-width="1.75"/><path d="M157.8,205v1.75a1.25,1.25,0,0,0,1.25,1.25h3.7a1.25,1.25,0,0,1,1.25,1.25V212" fill="none" stroke="#fff" stroke-miterlimit="10" stroke-width="1.75"/><rect width="4" height="6" rx="1.25" transform="translate(162 212)" fill="#fff" stroke="#fff" stroke-miterlimit="10" stroke-width="1.75"/><rect width="24" height="24" transform="translate(20 460)" fill="none"/><rect width="20" height="16" rx="4" transform="translate(22 464)" fill="none" stroke="#586074" stroke-width="1"/><path d="M32,469v3.759" fill="none" stroke="#586074" stroke-linecap="round" stroke-width="1"/><path d="M27.5,469v3.759" fill="none" stroke="#586074" stroke-linecap="round" stroke-width="1"/><path d="M36.76,469v6" fill="none" stroke="#586074" stroke-linecap="round" stroke-width="1"/><circle cx="0.5" cy="0.5" r="0.5" transform="translate(31.5 474.5)" fill="none"/><rect transform="translate(32 475)" fill="none" stroke="#586074" stroke-width="1"/><circle cx="0.5" cy="0.5" r="0.5" transform="translate(27 474.5)" fill="none"/><rect transform="translate(27.5 475)" fill="none" stroke="#586074" stroke-width="1"/><rect width="24" height="24" transform="translate(20 504)" fill="none"/><path d="M38,516a4.013,4.013,0,0,1,4-4v-2a2.006,2.006,0,0,0-2-2H26a4.013,4.013,0,0,0-4,4v8a4.013,4.013,0,0,0,4,4H40a2.006,2.006,0,0,0,2-2v-2A4.013,4.013,0,0,1,38,516Z" fill="none" stroke="#586074" stroke-linecap="round" stroke-linejoin="round" stroke-width="1"/><path d="M26,512h8" fill="none" stroke="#586074" stroke-linecap="round" stroke-linejoin="round" stroke-width="1"/><path d="M26,516h4" fill="none" stroke="#586074" stroke-linecap="round" stroke-linejoin="round" stroke-width="1"/><rect width="24" height="24" transform="translate(20 548)" fill="none"/><path d="M41,558v8a4.013,4.013,0,0,1-4,4H27a4.013,4.013,0,0,1-4-4V554a4.013,4.013,0,0,1,4-4h6Z" fill="none" stroke="#586074" stroke-linecap="round" stroke-linejoin="round" stroke-width="1"/><path d="M33,550v6a2.006,2.006,0,0,0,2,2h6Z" fill="none" stroke="#586074" stroke-linecap="round" stroke-linejoin="round" stroke-width="1"/><path d="M27.344,561.81h5.025" fill="none" stroke="#586074" stroke-linecap="round" stroke-width="1"/><path d="M27.344,565.81h9.192" fill="none" stroke="#586074" stroke-linecap="round" stroke-width="1"/><rect width="24" height="24" transform="translate(372 460)" fill="none"/><path d="M387.2,472h-6.4" fill="none" stroke="#586074" stroke-linecap="round" stroke-linejoin="round" stroke-width="1"/><circle cx="8" cy="8" r="8" transform="translate(376 464)" fill="none" stroke="#586074" stroke-width="1"/><rect width="24" height="24" transform="translate(108 460)" fill="none"/><path d="M113.46,470.523l.626-.778a.47.47,0,0,0-.37-.764h-1.245a.47.47,0,0,0-.366.764l.622.778a.47.47,0,0,0,.661.072A.446.446,0,0,0,113.46,470.523Z" fill="#586074"/><path d="M116.693,465.6h-2.362a1.3,1.3,0,0,0-1.238,1.358v2.023" fill="#586074" stroke="#586074" stroke-linecap="round" stroke-miterlimit="10" stroke-width="1"/><rect width="8.8" height="6.4" rx="2" transform="translate(119.2 464)" fill="none" stroke="#586074" stroke-width="1"/><rect width="16" height="6.4" rx="2" transform="translate(112 473.6)" fill="none" stroke="#586074" stroke-width="1"/><rect width="24" height="24" transform="translate(152 460)" fill="none"/><path d="M171.4,467.8v8a3.209,3.209,0,0,1-3.2,3.2h-8a3.209,3.209,0,0,1-3.2-3.2v-8a3.209,3.209,0,0,1,3.2-3.2h8.16a2.38,2.38,0,0,0-.16.8,2.407,2.407,0,0,0,2.4,2.4,2.379,2.379,0,0,0,.8-.16Z" fill="none" stroke="#586074" stroke-linecap="round" stroke-linejoin="round" stroke-width="1"/><path d="M173,465.4a2.329,2.329,0,0,1-1.6,2.24,2.379,2.379,0,0,1-.8.16,2.407,2.407,0,0,1-2.4-2.4,2.836,2.836,0,0,1,.16-.8,2.329,2.329,0,0,1,2.24-1.6,2.357,2.357,0,0,1,2.4,2.313Q173,465.357,173,465.4Z" fill="none" stroke="#586074" stroke-linecap="round" stroke-linejoin="round" stroke-width="1"/><path d="M167.4,469.4l-2.4,4-2.4-3.2-2.4,3.2" fill="none" stroke="#586074" stroke-linecap="round" stroke-linejoin="round" stroke-width="1"/><rect width="24" height="24" transform="translate(64 460)" fill="none"/><path d="M69.409,468.416H83.451" fill="none" stroke="#586074" stroke-linecap="round" stroke-width="1"/><path d="M81.166,466l2.465,2.465-2.465,2.465" fill="none" stroke="#586074" stroke-linecap="round" stroke-linejoin="round" stroke-width="1"/><path d="M83.286,475.515h-14.1" fill="none" stroke="#586074" stroke-linecap="round" stroke-width="1"/><path d="M71.465,477.931,69,475.466,71.465,473" fill="none" stroke="#586074" stroke-linecap="round" stroke-linejoin="round" stroke-width="1"/><rect width="24" height="24" transform="translate(108 64)" fill="none"/><path d="M118.392,69.214A7.007,7.007,0,0,1,127.118,76v.944" fill="none" stroke="#586074" stroke-linecap="round" stroke-miterlimit="10" stroke-width="1"/><path d="M129.27,76l-2.152,2.152L124.966,76" fill="none" stroke="#586074" stroke-linecap="round" stroke-linejoin="round" stroke-width="1"/><path d="M121.878,82.786A7.007,7.007,0,0,1,113.152,76v-.944" fill="none" stroke="#586074" stroke-linecap="round" stroke-miterlimit="10" stroke-width="1"/><path d="M111,76l2.152-2.152L115.3,76" fill="none" stroke="#586074" stroke-linecap="round" stroke-linejoin="round" stroke-width="1"/><rect width="24" height="24" transform="translate(196 460)" fill="none"/><circle cx="5.427" cy="5.427" r="5.427" transform="translate(205.146 469.293)" fill="none" stroke="#586074" stroke-miterlimit="10" stroke-width="1"/><path d="M214.124,468.6a3.777,3.777,0,0,0,.289-.677,6.642,6.642,0,0,0-.043-2.259.355.355,0,0,0-.438-.206h0a.341.341,0,0,0-.136.077l-1.817,1.683-1.962-1.817,1.817-1.682a.3.3,0,0,0,.031-.423l-.031-.031a.366.366,0,0,0-.138-.079,4.441,4.441,0,0,0-1.641-.174,4.036,4.036,0,0,0-3.8,3.9,3.562,3.562,0,0,0,.134.9l-6.5,5.313a2.329,2.329,0,0,0-.4,3.271,2.251,2.251,0,0,0,.17.194,2.8,2.8,0,0,0,3.742.209,2.485,2.485,0,0,0,.226-.209l.471-.5" fill="none" stroke="#586074" stroke-linecap="round" stroke-miterlimit="10" stroke-width="1"/><path d="M210.459,473.156V474.4l1.9,1.945" fill="none" stroke="#586074" stroke-linecap="round" stroke-linejoin="round" stroke-width="1"/><rect width="24" height="24" transform="translate(240 460)" fill="none"/><path d="M257,480.042H247a3,3,0,0,1-3-3v-3.6a3,3,0,0,1,3-3h2.2l1.329,1.326a2,2,0,0,0,2.829,0l1.325-1.326H257a3,3,0,0,1,3,3v3.6a3,3,0,0,1-3,3Z" fill="none" stroke="#586074" stroke-width="1"/><path d="M257,474.442H247a2.121,2.121,0,1,1,0-4h2.2l1.334,1.326a2,2,0,0,0,2.829,0l1.321-1.326H257a2.123,2.123,0,1,1,0,4Z" fill="none" stroke="#586074" stroke-width="1"/><rect width="8" height="6.4" rx="2" transform="translate(247.417 468.657) rotate(-45)" fill="none" stroke="#586074" stroke-width="1"/><rect width="24" height="24" transform="translate(284 460)" fill="none"/><rect width="12" height="12" rx="4" transform="translate(292 464)" fill="none" stroke="#586074" stroke-width="1"/><path d="M296,480h-4a4,4,0,0,1-4-4v-4a4,4,0,0,1,4-4v4a4.005,4.005,0,0,0,4,4h4A4,4,0,0,1,296,480Z" fill="none" stroke="#586074" stroke-width="1"/><path d="M299.7,468.3,296.3,471.7" fill="none" stroke="#586074" stroke-linecap="round" stroke-width="1"/><path d="M299.7,471.7,296.3,468.3" fill="none" stroke="#586074" stroke-linecap="round" stroke-width="1"/><rect width="24" height="24" transform="translate(108 108)" fill="none"/><rect width="12" height="12" rx="4" transform="translate(116 112)" fill="none" stroke="#586074" stroke-width="1"/><path d="M120,128h-4a4,4,0,0,1-4-4v-4a4,4,0,0,1,4-4v4a4.005,4.005,0,0,0,4,4h4A4,4,0,0,1,120,128Z" fill="none" stroke="#586074" stroke-width="1"/><path d="M120.3,117.9l1.514,1.514,2.4-2.4" fill="none" stroke="#586074" stroke-linecap="round" stroke-linejoin="round" stroke-width="1"/><rect width="24" height="24" transform="translate(328 460)" fill="none"/><path d="M340,480h-4a4,4,0,0,1-4-4v-4a4,4,0,0,1,4-4v4a4.005,4.005,0,0,0,4,4h4A4,4,0,0,1,340,480Z" fill="none" stroke="#586074" stroke-width="1"/><path d="M344.4,470h-4.8" fill="none" stroke="#586074" stroke-linecap="round" stroke-width="1"/><rect width="12" height="12" rx="4" transform="translate(336 464)" fill="none" stroke="#586074" stroke-width="1"/><rect width="24" height="24" transform="translate(20 108)" fill="none"/><path d="M29.152,125.982l-.8-.638a.482.482,0,0,0-.784.376V127a.482.482,0,0,0,.784.376l.8-.638a.482.482,0,0,0,.076-.677A.5.5,0,0,0,29.152,125.982Z" fill="#586074"/><rect width="7.385" height="7.385" rx="3.692" transform="translate(24 112)" fill="none" stroke="#586074" stroke-linecap="round" stroke-miterlimit="10" stroke-width="1"/><rect width="7.385" height="7.385" rx="2" transform="translate(32.615 120.205)" fill="none" stroke="#586074" stroke-linecap="round" stroke-miterlimit="10" stroke-width="1"/><path d="M24.7,122.667v2.423c0,.7.757,1.269,1.692,1.269h1.59" fill="#586074" stroke="#586074" stroke-linecap="round" stroke-miterlimit="10" stroke-width="1"/><rect width="24" height="24" transform="translate(372 196)" fill="none"/><path d="M383.88,197a10.88,10.88,0,1,0,10.88,10.88A10.88,10.88,0,0,0,383.88,197ZM383,213.88a.88.88,0,1,1,.88.88A.88.88,0,0,1,383,213.88Zm5.65-6.89a4.709,4.709,0,0,1-2.94,2.92c-.43.14-1.11.41-1.07.69a.886.886,0,0,1-.75.99c-.04,0-.08.01-.12.01a.889.889,0,0,1-.87-.75c-.16-1.18.59-2.05,2.23-2.6a3,3,0,0,0,1.86-1.8,2.555,2.555,0,0,0-.43-2.25,3.339,3.339,0,0,0-3.79-1.28,2.937,2.937,0,0,0-2.1,2.89.875.875,0,0,1-1.75,0,4.709,4.709,0,0,1,3.31-4.56,5.086,5.086,0,0,1,5.76,1.94A4.293,4.293,0,0,1,388.65,206.99Z" fill="#fff"/><rect width="24" height="24" transform="translate(416 152)" fill="none"/><path d="M422.5,160a.5.5,0,0,0,0,1h12a.5.5,0,0,0,0-1Zm-.5,4.5a.5.5,0,0,1,.5-.5h12a.5.5,0,0,1,0,1h-12A.5.5,0,0,1,422,164.5Zm0,4a.5.5,0,0,1,.5-.5h12a.5.5,0,0,1,0,1h-12A.5.5,0,0,1,422,168.5Z" fill="#fff" stroke="#fff" stroke-width="0.5" fill-rule="evenodd"/><rect width="24" height="24" transform="translate(460 152)" fill="none"/><rect width="20" height="16" rx="4" transform="translate(462 156)" fill="none" stroke="#fff" stroke-width="1"/><path d="M475.379,161.822l2.012,2.012-2.012,2.012" fill="none" stroke="#fff" stroke-linecap="round" stroke-linejoin="round" stroke-width="1"/><path d="M466,156h4v16h-4a4,4,0,0,1-4-4v-8A4,4,0,0,1,466,156Z" fill="#fff" stroke="#fff" stroke-width="1"/><rect width="24" height="24" transform="translate(460 196)" fill="none"/><rect width="20" height="16" rx="4" transform="translate(462 200)" fill="none" stroke="#fff" stroke-width="1"/><path d="M475.378,210.012,473.366,208l2.012-2.012" fill="none" stroke="#fff" stroke-linecap="round" stroke-linejoin="round" stroke-width="1"/><path d="M466,200h0v16h0a4,4,0,0,1-4-4v-8A4,4,0,0,1,466,200Z" fill="#fff" stroke="#fff" stroke-width="1"/><rect width="24" height="24" transform="translate(152 416)" fill="none"/><path d="M160.5,427.8l2.8,2.9L169,425" fill="none" stroke="#4262f0" stroke-linecap="round" stroke-linejoin="round" stroke-width="1"/><rect width="24" height="24" transform="translate(240 64)" fill="none"/><path d="M245.169,69.5h13a1,1,0,0,1,.5,1.5l-5,5.5v7l-4-3v-4l-5-5.5a1,1,0,0,1,.275-1.387.989.989,0,0,1,.225-.113" fill="none" stroke="#586074" stroke-linecap="round" stroke-linejoin="round" stroke-width="1"/><rect width="24" height="24" transform="translate(108 416)" fill="none"/><path d="M111,421h18" fill="none" stroke="#586074" stroke-linecap="round" stroke-width="1"/><rect width="18" height="7.5" rx="2" transform="translate(111 427)" fill="none" stroke="#586074" stroke-width="1"/><rect width="24" height="24" transform="translate(64 416)" fill="none"/><path d="M67,422.5h6.269" fill="none" stroke="#586074" stroke-linecap="round" stroke-width="1"/><path d="M67,428.5h6.269" fill="none" stroke="#586074" stroke-linecap="round" stroke-width="1"/><path d="M67,434.5h6.269" fill="none" stroke="#586074" stroke-linecap="round" stroke-width="1"/><rect width="8" height="13" rx="2" transform="translate(77 422)" fill="none" stroke="#586074" stroke-width="1"/><rect width="24" height="24" transform="translate(20 416)" fill="none"/><path d="M23,422H41" fill="none" stroke="#586074" stroke-linecap="round" stroke-width="1"/><path d="M23,428H41" fill="none" stroke="#586074" stroke-linecap="round" stroke-width="1"/><path d="M23,434H41" fill="none" stroke="#586074" stroke-linecap="round" stroke-width="1"/><rect width="24" height="24" transform="translate(196 328)" fill="none"/><path d="M211.309,334.273c.545,0,.916,0,1.2.024a1.372,1.372,0,0,1,.521.115,1.277,1.277,0,0,1,.556.556,1.371,1.371,0,0,1,.115.521c.023.286.024.657.024,1.2v.764a.636.636,0,0,0,1.273,0v-.79c0-.512,0-.935-.028-1.279a2.586,2.586,0,0,0-.249-1,2.545,2.545,0,0,0-1.111-1.107,2.586,2.586,0,0,0-1-.249c-.34-.028-.762-.028-1.275-.028h-.79a.637.637,0,1,0,0,1.273ZM205.455,333h-.79c-.512,0-.935,0-1.279.028a2.586,2.586,0,0,0-1,.249,2.544,2.544,0,0,0-1.109,1.113,2.587,2.587,0,0,0-.249,1c-.028.34-.028.762-.028,1.275h0v.79a.636.636,0,0,0,1.273,0v-.764c0-.545,0-.916.024-1.2a1.371,1.371,0,0,1,.115-.521,1.277,1.277,0,0,1,.556-.556,1.379,1.379,0,0,1,.521-.114c.286-.023.657-.024,1.2-.024h.764a.638.638,0,0,0,0-1.276ZM215,342.545a.636.636,0,0,0-1.273,0v.764c0,.545,0,.916-.024,1.2a1.371,1.371,0,0,1-.115.521,1.277,1.277,0,0,1-.556.556,1.372,1.372,0,0,1-.521.115c-.286.023-.657.024-1.2.024h-.764a.636.636,0,0,0,0,1.273h.79c.512,0,.935,0,1.279-.028a2.587,2.587,0,0,0,1-.249,2.543,2.543,0,0,0,1.112-1.112,2.587,2.587,0,0,0,.249-1c.023-.339.023-.761.023-1.274Zm-13.364-.636a.636.636,0,0,1,.636.636v.764c0,.545,0,.916.024,1.2a1.372,1.372,0,0,0,.115.521,1.277,1.277,0,0,0,.556.556,1.372,1.372,0,0,0,.521.115c.286.023.657.024,1.2.024h.764a.636.636,0,0,1,0,1.273h-.79c-.512,0-.935,0-1.279-.028a2.587,2.587,0,0,1-1-.249,2.553,2.553,0,0,1-1.106-1.111,2.587,2.587,0,0,1-.249-1c-.028-.34-.028-.762-.028-1.275h0v-.79A.636.636,0,0,1,201.636,341.909Z" fill="#586074" fill-rule="evenodd"/><rect width="24" height="24" transform="translate(196 416)" fill="none"/><path d="M208,431.2v-6.4" fill="none" stroke="#586074" stroke-linecap="round" stroke-linejoin="round" stroke-width="1"/><path d="M211.2,428h-6.4" fill="none" stroke="#586074" stroke-linecap="round" stroke-linejoin="round" stroke-width="1"/><circle cx="8" cy="8" r="8" transform="translate(200 420)" fill="none" stroke="#586074" stroke-width="1"/><path d="M338.3,347.513a1,1,0,0,1-1-1v-6.04h-2.695a1.1,1.1,0,0,1-.833-1.828l5.9-6.766a1.1,1.1,0,0,1,1.552-.112,1.075,1.075,0,0,1,.112.112l5.894,6.766a1.1,1.1,0,0,1-.832,1.828h-2.7v6.04a1,1,0,0,1-1,1h-4.4Z" fill="none" stroke="#586074" stroke-linejoin="round" stroke-width="1"/><path d="M430.2,331.5a1,1,0,0,1,1,1v6.04h2.695a1.1,1.1,0,0,1,.833,1.828l-5.9,6.766a1.1,1.1,0,0,1-1.552.112,1.075,1.075,0,0,1-.112-.112l-5.894-6.766a1.1,1.1,0,0,1,.832-1.828h2.7V332.5a1,1,0,0,1,1-1h4.4Z" fill="none" stroke="#586074" stroke-linejoin="round" stroke-width="1"/><path d="M382.3,347.513a1,1,0,0,1-1-1v-6.04h-2.695a1.1,1.1,0,0,1-.833-1.828l5.9-6.766a1.1,1.1,0,0,1,1.552-.112,1.075,1.075,0,0,1,.112.112l5.894,6.766a1.1,1.1,0,0,1-.832,1.828h-2.7v6.04a1,1,0,0,1-1,1h-4.4Z" fill="none" stroke="#4262f0" stroke-linejoin="round" stroke-width="1"/><path d="M474.7,331.5a1,1,0,0,1,1,1v6.04h2.695a1.1,1.1,0,0,1,.833,1.828l-5.9,6.766a1.1,1.1,0,0,1-1.552.112,1.075,1.075,0,0,1-.112-.112l-5.894-6.766a1.1,1.1,0,0,1,.832-1.828h2.7V332.5a1,1,0,0,1,1-1h4.4Z" fill="none" stroke="#4262f0" stroke-linejoin="round" stroke-width="1"/><rect width="24" height="24" transform="translate(460 240)" fill="none"/><path d="M476.8,260h-9.6a3.209,3.209,0,0,1-3.2-3.2v-9.6a3.209,3.209,0,0,1,3.2-3.2h9.6a3.209,3.209,0,0,1,3.2,3.2v9.6A3.209,3.209,0,0,1,476.8,260Z" fill="none" stroke="#586074" stroke-linecap="round" stroke-linejoin="round" stroke-width="1"/><path d="M480,252v4.8a3.209,3.209,0,0,1-3.2,3.2h-9.6a3.209,3.209,0,0,1-3.2-3.2V252h3.36a1.434,1.434,0,0,1,1.44,1.428v.012a3.383,3.383,0,0,0,2.96,3.36,3.143,3.143,0,0,0,2.48-.96,3.208,3.208,0,0,0,.96-2.24v-.16a1.434,1.434,0,0,1,1.428-1.44H480Z" fill="none" stroke="#586074" stroke-linecap="round" stroke-linejoin="round" stroke-width="1"/><rect width="24" height="24" transform="translate(416 240)" fill="none"/><path d="M436.059,244.15a.876.876,0,0,0-.093-.109v-.005h0a1.033,1.033,0,0,0-.747-.286,1.738,1.738,0,0,0-.544.1l-14.023,4.674c-.742.247-.878.68-.892.915s.066.68.772,1.017l3.521,1.682-1.576,3.892c0,.009-.008.019-.01.028a1.225,1.225,0,0,0,.193,1.3,1.033,1.033,0,0,0,.753.288,1.731,1.731,0,0,0,.543-.094l.029-.01,3.891-1.576,1.682,3.521c.322.673.745.774.969.774.2,0,.694-.088.963-.893l4.674-14.023A1.29,1.29,0,0,0,436.059,244.15ZM420.8,249.5a1.168,1.168,0,0,1,.151-.062l13.4-4.465-7.559,7.558a4.044,4.044,0,0,0-.837-.558l-5.01-2.392a1.258,1.258,0,0,1-.145-.078Zm2.831,7.131a.187.187,0,1,1-.317-.2.181.181,0,0,1,.06-.06l1.547-3.821.615.294a4.137,4.137,0,0,1,1.623,1.622l.294.615Zm6.935,2.422a1.176,1.176,0,0,1-.061.152,1.344,1.344,0,0,1-.081-.143l-2.392-5.01a4.044,4.044,0,0,0-.557-.838l7.558-7.558Z" fill="#586074"/><path d="M36.8,654.4H27.2a3.209,3.209,0,0,1-3.2-3.2v-8a3.209,3.209,0,0,1,3.2-3.2h3.2l2.4,3.2h4a3.21,3.21,0,0,1,3.2,3.2v4.8A3.21,3.21,0,0,1,36.8,654.4Z" fill="none" stroke="#586074" stroke-linecap="round" stroke-linejoin="round" stroke-width="1"/><path d="M35.6,648.8H28.4" fill="none" stroke="#586074" stroke-linecap="round" stroke-linejoin="round" stroke-width="1"/><rect width="24" height="24" transform="translate(20 636)" fill="none"/><rect width="24" height="24" transform="translate(152 636)" fill="none"/><rect width="23.9" height="23.9" transform="translate(152.05 636.05)" fill="none" stroke="#586074" stroke-width="0.1"/><rect width="24" height="24" transform="translate(20 680)" fill="none"/><rect width="24" height="24" transform="translate(196 636)" fill="none"/><rect width="23.9" height="23.9" transform="translate(196.05 636.05)" fill="none" stroke="#586074" stroke-width="0.1"/><rect width="24" height="24" transform="translate(240 636)" fill="none"/><rect width="23.9" height="23.9" transform="translate(240.05 636.05)" fill="none" stroke="#586074" stroke-width="0.1"/><rect width="24" height="24" transform="translate(284 636)" fill="none"/><rect width="23.9" height="23.9" transform="translate(284.05 636.05)" fill="none" stroke="#586074" stroke-width="0.1"/><rect width="24" height="24" transform="translate(328 636)" fill="none"/><rect width="23.9" height="23.9" transform="translate(328.05 636.05)" fill="none" stroke="#586074" stroke-width="0.1"/><rect width="24" height="24" transform="translate(372 636)" fill="none"/><rect width="23.9" height="23.9" transform="translate(372.05 636.05)" fill="none" stroke="#586074" stroke-width="0.1"/><rect width="24" height="24" transform="translate(416 636)" fill="none"/><rect width="23.9" height="23.9" transform="translate(416.05 636.05)" fill="none" stroke="#586074" stroke-width="0.1"/><rect width="24" height="24" transform="translate(460 636)" fill="none"/><rect width="23.9" height="23.9" transform="translate(460.05 636.05)" fill="none" stroke="#586074" stroke-width="0.1"/><rect width="13.298" height="11.82" rx="2" transform="translate(421.702 466)" fill="none"/><rect width="14.298" height="12.82" rx="2.5" transform="translate(421.202 465.5)" fill="none" stroke="#fff" stroke-width="1"/><path d="M423.7,466H433a2,2,0,0,1,2,2v.955H421.7V468A2,2,0,0,1,423.7,466Z" fill="none"/><path d="M423.7,465.5H433a2.5,2.5,0,0,1,2.5,2.5v.955a.5.5,0,0,1-.5.5H421.7a.5.5,0,0,1-.5-.5V468A2.5,2.5,0,0,1,423.7,465.5Z" fill="none" stroke="#fff" stroke-width="1"/><circle cx="0.554" cy="0.554" r="0.554" transform="translate(427.613 466.923)" fill="#fff"/><circle cx="0.054" cy="0.054" r="0.054" transform="translate(428.113 467.423)" fill="none" stroke="#fff" stroke-width="1"/><circle cx="0.554" cy="0.554" r="0.554" transform="translate(429.829 466.923)" fill="#fff"/><circle cx="0.054" cy="0.054" r="0.054" transform="translate(430.329 467.423)" fill="none" stroke="#fff" stroke-width="1"/><circle cx="0.554" cy="0.554" r="0.554" transform="translate(432.045 466.923)" fill="#fff"/><circle cx="0.054" cy="0.054" r="0.054" transform="translate(432.545 467.423)" fill="none" stroke="#fff" stroke-width="1"/><path d="M419,473.944h9.166" fill="none" stroke="#fff" stroke-linecap="round" stroke-width="1"/><path d="M426.367,472.164l1.8,1.8-1.8,1.8" fill="none" stroke="#fff" stroke-linecap="round" stroke-linejoin="round" stroke-width="1"/><rect width="24" height="24" transform="translate(460 460)" fill="none"/><rect width="13.298" height="11.82" rx="2" transform="translate(465.702 466)" fill="none"/><rect width="14.298" height="12.82" rx="2.5" transform="translate(465.202 465.5)" fill="none" stroke="#586074" stroke-width="1"/><path d="M467.7,466H477a2,2,0,0,1,2,2v.955H465.7V468A2,2,0,0,1,467.7,466Z" fill="none"/><path d="M467.7,465.5H477a2.5,2.5,0,0,1,2.5,2.5v.955a.5.5,0,0,1-.5.5H465.7a.5.5,0,0,1-.5-.5V468A2.5,2.5,0,0,1,467.7,465.5Z" fill="none" stroke="#586074" stroke-width="1"/><circle cx="0.554" cy="0.554" r="0.554" transform="translate(471.614 466.924)" fill="#fff"/><circle cx="0.054" cy="0.054" r="0.054" transform="translate(472.114 467.424)" fill="none" stroke="#586074" stroke-width="1"/><circle cx="0.554" cy="0.554" r="0.554" transform="translate(473.829 466.924)" fill="#fff"/><circle cx="0.054" cy="0.054" r="0.054" transform="translate(474.329 467.424)" fill="none" stroke="#586074" stroke-width="1"/><circle cx="0.554" cy="0.554" r="0.554" transform="translate(476.045 466.924)" fill="#fff"/><circle cx="0.054" cy="0.054" r="0.054" transform="translate(476.545 467.424)" fill="none" stroke="#586074" stroke-width="1"/><path d="M463,473.944h9.166" fill="none" stroke="#586074" stroke-linecap="round" stroke-width="1"/><path d="M470.367,472.164l1.8,1.8-1.8,1.8" fill="none" stroke="#586074" stroke-linecap="round" stroke-linejoin="round" stroke-width="1"/><rect width="24" height="24" transform="translate(20 64)" fill="none"/><path d="M37.6,69H26.4A2.4,2.4,0,0,0,24,71.4h0v8a2.4,2.4,0,0,0,2.4,2.4h2v2.1a.819.819,0,0,0,1.343.629L33.016,81.8H37.6A2.4,2.4,0,0,0,40,79.4v-8A2.4,2.4,0,0,0,37.6,69Z" fill="none" stroke="#586074" stroke-linecap="square" stroke-miterlimit="10" stroke-width="1"/><path d="M28.4,76.6a.8.8,0,1,0-.8-.8.8.8,0,0,0,.8.8Z" fill="#586074"/><path d="M36.4,76.6a.8.8,0,1,0-.8-.8.8.8,0,0,0,.8.8Z" fill="#586074"/><path d="M32.4,76.6a.8.8,0,1,0-.8-.8.8.8,0,0,0,.8.8Z" fill="#586074"/><rect width="24" height="24" transform="translate(152 504)" fill="none"/><path d="M162.647,519.5a.147.147,0,0,1-.147-.148v-6.7a.147.147,0,0,1,.147-.148.141.141,0,0,1,.079.025l5.27,3.347a.149.149,0,0,1,.069.128.136.136,0,0,1-.067.12l-5.27,3.354A.146.146,0,0,1,162.647,519.5Z" fill="#586074"/><path d="M163,513.291v5.417L167.26,516,163,513.291M162.647,512a.652.652,0,0,1,.35.1l5.267,3.346a.648.648,0,0,1,0,1.094L163,519.9a.646.646,0,0,1-1-.544v-6.7A.647.647,0,0,1,162.647,512Z" fill="#586074"/><circle cx="8" cy="8" r="8" transform="translate(156 508)" fill="none"/><circle cx="8.5" cy="8.5" r="8.5" transform="translate(155.5 507.5)" fill="none" stroke="#586074" stroke-width="1"/><rect width="24" height="24" transform="translate(108 504)" fill="none"/><circle cx="8" cy="8" r="8" transform="translate(112 508)" fill="none"/><circle cx="8.5" cy="8.5" r="8.5" transform="translate(111.5 507.5)" fill="none" stroke="#586074" stroke-width="1"/><path d="M118,513v7" fill="none" stroke="#586074" stroke-linecap="round" stroke-width="1"/><path d="M122,513v7" fill="none" stroke="#586074" stroke-linecap="round" stroke-width="1"/><rect width="24" height="24" transform="translate(240 328)" fill="none"/><path d="M253.727,333a.636.636,0,0,1,.636.636v.764c0,.545,0,.916.024,1.2a1.372,1.372,0,0,0,.115.521,1.277,1.277,0,0,0,.556.556,1.372,1.372,0,0,0,.521.115c.286.023.657.024,1.2.024h.764a.636.636,0,0,1,0,1.273h-.79c-.512,0-.935,0-1.279-.028a2.587,2.587,0,0,1-1-.249,2.553,2.553,0,0,1-1.106-1.111,2.586,2.586,0,0,1-.249-1c-.028-.34-.028-.762-.028-1.275h0v-.79A.636.636,0,0,1,253.727,333Z" fill="#586074" fill-rule="evenodd"/><path d="M250.091,333.636a.637.637,0,0,0-1.273,0v.764c0,.545,0,.916-.024,1.2a1.372,1.372,0,0,1-.115.521,1.277,1.277,0,0,1-.556.556,1.372,1.372,0,0,1-.521.115c-.286.023-.657.024-1.2.024h-.764a.636.636,0,0,0,0,1.273h.79c.512,0,.935,0,1.279-.028a2.587,2.587,0,0,0,1-.249,2.543,2.543,0,0,0,1.112-1.112,2.587,2.587,0,0,0,.249-1c.023-.339.023-.761.023-1.274Z" fill="#586074" fill-rule="evenodd"/><path d="M246.4,342.364c.545,0,.916,0,1.2.024a1.372,1.372,0,0,1,.521.115,1.277,1.277,0,0,1,.556.556,1.372,1.372,0,0,1,.115.521c.023.286.024.657.024,1.2v.764a.637.637,0,0,0,1.273,0v-.79c0-.512,0-.935-.028-1.279a2.586,2.586,0,0,0-.249-1,2.545,2.545,0,0,0-1.111-1.107,2.587,2.587,0,0,0-1-.249c-.34-.028-.762-.028-1.275-.028h-.79a.637.637,0,1,0,0,1.273Z" fill="#586074" fill-rule="evenodd"/><path d="M257.546,341.091h-.79c-.512,0-.935,0-1.279.028a2.587,2.587,0,0,0-1,.249,2.543,2.543,0,0,0-1.109,1.113,2.587,2.587,0,0,0-.249,1c-.028.34-.028.762-.028,1.275h0v.79a.636.636,0,0,0,1.273,0v-.764c0-.545,0-.916.024-1.2a1.371,1.371,0,0,1,.115-.521,1.277,1.277,0,0,1,.556-.556,1.379,1.379,0,0,1,.521-.114c.286-.023.657-.024,1.2-.024h.764a.638.638,0,1,0,0-1.276Z" fill="#586074" fill-rule="evenodd"/><path d="M215.83,511.07l-7.79-4.5a.481.481,0,0,0-.5,0l-7.79,4.5a.5.5,0,0,0-.25.43v9a.5.5,0,0,0,.25.43l7.79,4.5a.481.481,0,0,0,.5,0l3.13-1.81a.485.485,0,0,1-.08-.07c-.07-.07-.15-.16-.22-.24-.02-.02-.03-.04-.05-.06L207.79,525,200,520.5v-7.84l7.29,4.21a1.027,1.027,0,0,0,1,0l7.29-4.21v3.55c.09.02.18.06.27.09a1.676,1.676,0,0,1,.23.11V511.5A.5.5,0,0,0,215.83,511.07ZM207.79,516,200,511.5l7.79-4.5,7.79,4.5Z" fill="#fff"/><path d="M216.08,510.63l-7.79-4.5a1.027,1.027,0,0,0-1,0l-7.79,4.5a1,1,0,0,0-.5.87v9a1,1,0,0,0,.5.87l7.79,4.5a1.027,1.027,0,0,0,1,0l3.29-1.9a2.527,2.527,0,0,1-.26-.2l-.15-.15a.485.485,0,0,1-.08-.07c-.07-.07-.15-.16-.22-.24-.02-.02-.03-.04-.05-.06L207.79,525,200,520.5v-9l7.79-4.5,7.79,4.5v4.71c.09.02.18.06.27.09a1.676,1.676,0,0,1,.23.11c.14.07.27.14.4.22.03.02.07.04.1.06V511.5A1,1,0,0,0,216.08,510.63Z" fill="#586074"/><path d="M215.83,511.07l-7.79-4.5a.481.481,0,0,0-.5,0l-7.79,4.5a.495.495,0,0,0,0,.86l.25.14,7.54,4.36a.481.481,0,0,0,.5,0l7.54-4.36.25-.14a.495.495,0,0,0,0-.86ZM207.79,516,200,511.5l7.79-4.5,7.79,4.5Z" fill="#fff"/><path d="M216.08,510.63l-7.79-4.5a1.027,1.027,0,0,0-1,0l-7.79,4.5a1.007,1.007,0,0,0,0,1.74l.5.29,7.29,4.21a1.027,1.027,0,0,0,1,0l7.29-4.21.5-.29a1.007,1.007,0,0,0,0-1.74Zm-.5.87-7.79,4.5L200,511.5l7.79-4.5Z" fill="#586074"/><path d="M216.76,518.03c-.06-.06-.12-.11-.18-.17a2.5,2.5,0,0,0-.5-.36,3.437,3.437,0,0,0-.5-.26,3.515,3.515,0,0,0-1.29-.24,3.439,3.439,0,0,0-2.47,1.03,3.481,3.481,0,0,0-.18,4.75c.06.06.12.13.18.19s.12.11.18.17a2.906,2.906,0,0,0,.45.33,3.465,3.465,0,0,0,3.93-.17,3.848,3.848,0,0,0,.38-.33,2.76,2.76,0,0,0,.32-.38A3.467,3.467,0,0,0,216.76,518.03Zm-.7,4.24a2.488,2.488,0,0,1-1.77.73,2.42,2.42,0,0,1-.8-.13,2.053,2.053,0,0,1-.56-.27,2.5,2.5,0,0,1,2.65-4.24,2.391,2.391,0,0,1,.48.37l.02.02a2.406,2.406,0,0,1,.5.74A2.513,2.513,0,0,1,216.06,522.27Z" fill="#586074"/><path d="M218.18,524.39a.5.5,0,0,1-.35.15.507.507,0,0,1-.36-.15l-1.09-1.09a3.848,3.848,0,0,0,.38-.33,2.76,2.76,0,0,0,.32-.38l1.1,1.09c.351,0,.636,0,.636.355S218.531,524.671,218.18,524.39Z" fill="#586074"/><path d="M253.85,523.39l-1.81,1.04a.483.483,0,0,1-.5,0l-7.79-4.5a.5.5,0,0,1-.25-.43.485.485,0,0,1,.25-.43l2.21-1.28.51-.29.49-.29.5.29,4.33,2.5,1.16-.67a4.646,4.646,0,0,0-.13.65q-.03.3-.03.6l-.5.29a1.028,1.028,0,0,1-1,0l-4.33-2.5-.5-.29L244,519.5l7.79,4.5,1.75-1.01A3.885,3.885,0,0,0,253.85,523.39Z" fill="#fff"/><path d="M254.11,523.68c-.07-.08-.15-.17-.23-.25-.01-.01-.02-.03-.03-.04a3.885,3.885,0,0,1-.31-.4L251.79,524,244,519.5l2.46-1.42,1-.58-.5-.29-.5-.29-.5.29-.51.29-1.95,1.13a1.008,1.008,0,0,0-.363,1.377,1.019,1.019,0,0,0,.363.363l7.79,4.5a1.028,1.028,0,0,0,1,0l1.92-1.11A.7.7,0,0,1,254.11,523.68Z" fill="#586074"/><path d="M252.95,519.33a4.646,4.646,0,0,0-.13.65l-.78.45a.483.483,0,0,1-.5,0l-4.58-2.64-.49-.29-.51-.29-2.21-1.28a.495.495,0,0,1,0-.86l2.21-1.28.51-.29.49-.29.5.29-1,.58L244,515.5l2.46,1.42.5.29.5.29,4.33,2.5Z" fill="#fff"/><path d="M260.08,515.5a.485.485,0,0,1-.25.43l-.76.44a.673.673,0,0,0-.12-.06,4.655,4.655,0,0,0-.49-.16l1.12-.65-2.46-1.42-1-.58.5-.29.49.29.51.29,2.21,1.28A.485.485,0,0,1,260.08,515.5Z" fill="#fff"/><path d="M251.79,520l-4.33-2.5-.5-.29-.5-.29L244,515.5l2.46-1.42,1-.58-.5-.29-.5-.29-.5.29-.51.29-1.95,1.13a1.008,1.008,0,0,0-.363,1.377,1.019,1.019,0,0,0,.363.363l1.95,1.13.51.29.5.29.5.29,4.33,2.5a1.028,1.028,0,0,0,1,0l.5-.29q0-.3.03-.6a4.646,4.646,0,0,1,.13-.65Zm8.29-5.37-1.95-1.13-.51-.29-.5-.29-.5.29-.5.29,1,.58,2.46,1.42-1.12.65a4.655,4.655,0,0,1,.49.16.673.673,0,0,1,.12.06,2.543,2.543,0,0,1,.52.27.009.009,0,0,1,.01.01h0l.48-.28a1.007,1.007,0,0,0,.363-1.377A1.018,1.018,0,0,0,260.08,514.63Z" fill="#586074"/><path d="M259.83,511.07l-7.79-4.5a.483.483,0,0,0-.5,0l-7.79,4.5a.5.5,0,0,0-.25.43.485.485,0,0,0,.25.43l2.21,1.28.51.29.49.29,4.58,2.64a.483.483,0,0,0,.5,0l4.58-2.64.49-.29.51-.29,2.21-1.28a.485.485,0,0,0,.25-.43A.5.5,0,0,0,259.83,511.07Zm-2.71,1.85-.5.29-.5.29-3.46,2-.87.5-.87-.5-3.46-2-.5-.29-.5-.29L244,511.5l7.79-4.5,7.79,4.5Z" fill="#fff"/><path d="M260.08,510.63l-7.79-4.5a1.028,1.028,0,0,0-1,0l-7.79,4.5a1.008,1.008,0,0,0-.363,1.377,1.019,1.019,0,0,0,.363.363l1.95,1.13.51.29.5.29.5.29,3.46,2,.87.5a1.028,1.028,0,0,0,1,0l.87-.5,3.46-2,.5-.29.5-.29.51-.29,1.95-1.13a1.007,1.007,0,0,0,.363-1.377A1.018,1.018,0,0,0,260.08,510.63Zm-7.42,4.87-.87.5-.87-.5-3.46-2-.5-.29-.5-.29L244,511.5l7.79-4.5,7.79,4.5-2.46,1.42-.5.29-.5.29Z" fill="#586074"/><path d="M259.76,518.03c-.06-.06-.12-.11-.18-.17a2.5,2.5,0,0,0-.5-.36,3.436,3.436,0,0,0-.5-.26,3.514,3.514,0,0,0-1.29-.24,3.439,3.439,0,0,0-2.47,1.03,3.481,3.481,0,0,0-.18,4.75c.06.06.12.13.18.19s.12.11.18.17a2.906,2.906,0,0,0,.45.33,3.466,3.466,0,0,0,3.93-.17,3.852,3.852,0,0,0,.38-.33,2.762,2.762,0,0,0,.32-.38A3.467,3.467,0,0,0,259.76,518.03Zm-.7,4.24a2.488,2.488,0,0,1-1.77.73,2.421,2.421,0,0,1-.8-.13,2.052,2.052,0,0,1-.56-.27,2.5,2.5,0,0,1,2.65-4.24,2.391,2.391,0,0,1,.48.37l.02.02a2.4,2.4,0,0,1,.5.74A2.513,2.513,0,0,1,259.06,522.27Z" fill="#586074"/><path d="M261.18,524.39a.5.5,0,0,1-.35.15.507.507,0,0,1-.36-.15l-1.09-1.09a3.852,3.852,0,0,0,.38-.33,2.762,2.762,0,0,0,.32-.38l1.1,1.09A.513.513,0,0,1,261.18,524.39Z" fill="#586074"/><rect width="24" height="24" transform="translate(460 416)" fill="none"/><path d="M472,432v-8" fill="none" stroke="#586074" stroke-linecap="round" stroke-linejoin="round" stroke-width="1"/><path d="M476,428h-8" fill="none" stroke="#586074" stroke-linecap="round" stroke-linejoin="round" stroke-width="1"/><path d="M463,378h11" fill="none" stroke="#586074" stroke-linecap="round" stroke-width="1"/><path d="M463,382h11" fill="none" stroke="#586074" stroke-linecap="round" stroke-width="1"/><path d="M463,386h6.914" fill="none" stroke="#586074" stroke-linecap="round" stroke-width="1"/><path d="M473,386h8.5" fill="none" stroke="#586074" stroke-linecap="round" stroke-width="1"/><path d="M477.253,381.748v8.5" fill="none" stroke="#586074" stroke-linecap="round" stroke-width="1"/><path d="M26,701H38a4.013,4.013,0,0,0,4-4v-6a4.013,4.013,0,0,0-4-4H33l-3-4H26a4.013,4.013,0,0,0-4,4v10A4.013,4.013,0,0,0,26,701Zm1.5-7.5a.5.5,0,0,0,0,1h9a.5.5,0,0,0,0-1Z" fill="#586074" fill-rule="evenodd" opacity="0.54" style="isolation:isolate"/><rect width="24" height="24" transform="translate(20 724)" fill="none"/><path d="M26,745H38a4.013,4.013,0,0,0,4-4v-6a4.013,4.013,0,0,0-4-4H33l-3-4H26a4.013,4.013,0,0,0-4,4v10A4.013,4.013,0,0,0,26,745Zm1.5-7.5a.5.5,0,0,0,0,1h9a.5.5,0,0,0,0-1Z" fill="#4262f0" fill-rule="evenodd"/><rect width="24" height="24" transform="translate(372 284)" fill="none"/><path d="M392,288l-16,16" fill="none" stroke="#586074" stroke-linecap="round" stroke-width="1"/><path d="M392,304l-16-16" fill="none" stroke="#586074" stroke-linecap="round" stroke-width="1"/><rect width="24" height="24" transform="translate(416 284)" fill="none"/><path d="M436,288l-16,16" fill="none" stroke="#fff" stroke-linecap="round" stroke-width="1"/><path d="M436,304l-16-16" fill="none" stroke="#fff" stroke-linecap="round" stroke-width="1"/><path d="M303,514.222v6.222a3.12,3.12,0,0,1-3.111,3.111h-7.778A3.12,3.12,0,0,1,289,520.444v-9.333A3.12,3.12,0,0,1,292.111,508h4.667Z" fill="none" stroke="#586074" stroke-linecap="round" stroke-linejoin="round" stroke-width="1"/><path d="M294.046,517.186h3.908" fill="none" stroke="#586074" stroke-linecap="round" stroke-width="1"/><path d="M296,515.232v3.908" fill="none" stroke="#586074" stroke-linecap="round" stroke-width="1"/><path d="M152,548h20v20H152Z" fill="none"/><path d="M168.125,556.366a6.244,6.244,0,0,0-11.667-1.666,5,5,0,0,0,.542,9.966h10.833a4.155,4.155,0,0,0,.292-8.3Zm-4.458,2.467v3.333h-3.334v-3.333h-2.5L162,554.666l4.167,4.167Z" fill="#4262f0"/><path d="M202.472,567.845a1,1,0,0,1-1-1V553.16a1,1,0,0,1,1-1,.984.984,0,0,1,.483.127l1.234.683v14.073l-1.234.682A.98.98,0,0,1,202.472,567.845Zm4.043-2.094v-11.5l2.328,1.287v8.927l-2.327,1.285Zm4.656-2.572v-6.354l4.164,2.3a1,1,0,0,1,0,1.753l-4.162,2.3Z" fill="#fff"/><path d="M246.325,567.845a1,1,0,0,1-1-1V553.16a1,1,0,0,1,1-1,.984.984,0,0,1,.483.127l1.234.683v14.073l-1.234.682A.98.98,0,0,1,246.325,567.845Zm4.043-2.094v-11.5l2.328,1.287v8.927l-2.327,1.285Zm4.656-2.572v-6.354l4.164,2.3a1,1,0,0,1,0,1.753l-4.162,2.3Z" fill="#586074" opacity="0.1" style="isolation:isolate"/><path d="M292.625,555h-.061a6.46,6.46,0,0,0-1.146.055,2.952,2.952,0,0,0-2.36,2.275,5.772,5.772,0,0,0-.058,1.107v.126a5.772,5.772,0,0,0,.058,1.107,2.952,2.952,0,0,0,2.36,2.275,6.46,6.46,0,0,0,1.146.055h.936a.5.5,0,0,0,0-1h-.875a6.309,6.309,0,0,1-1.019-.037,1.953,1.953,0,0,1-1.568-1.5,12.274,12.274,0,0,1,0-1.93,1.953,1.953,0,0,1,1.568-1.5,6.191,6.191,0,0,1,1.019-.033h.875a.5.5,0,0,0,0-1Zm5.75,1a6.309,6.309,0,0,1,1.019.037,1.953,1.953,0,0,1,1.568,1.5,12.274,12.274,0,0,1,0,1.93,1.953,1.953,0,0,1-1.568,1.5,6.191,6.191,0,0,1-1.019.033H297.5a.5.5,0,0,0,0,1h.936a6.46,6.46,0,0,0,1.146-.055,2.952,2.952,0,0,0,2.36-2.275,5.772,5.772,0,0,0,.058-1.107v-.126a5.772,5.772,0,0,0-.058-1.107,2.952,2.952,0,0,0-2.36-2.275,6.471,6.471,0,0,0-1.147-.055H297.5a.5.5,0,0,0,0,1ZM293,558a.5.5,0,0,0,0,1h5a.5.5,0,0,0,0-1Z" fill="#586074" fill-rule="evenodd"/><circle cx="11" cy="11" r="11" transform="translate(373 505)" fill="rgba(255,255,255,0)"/><g opacity="0.42"><path d="M384.6,518.635a.638.638,0,0,1-1.275.051.43.43,0,0,1,0-.051l.148-3.79a.492.492,0,0,1,.984,0Zm-1.348-5.674a.711.711,0,1,1,.711.711h0A.711.711,0,0,1,383.25,512.961Z" fill="#586074" fill-rule="evenodd"/><circle cx="6" cy="6" r="6" transform="translate(378 510)" fill="none"/><circle cx="6.5" cy="6.5" r="6.5" transform="translate(377.5 509.5)" fill="none" stroke="#586074" stroke-width="1"/></g><circle cx="11" cy="11" r="11" transform="translate(418 506)" fill="rgba(66,98,240,0)"/><path d="M429.6,519.635a.638.638,0,0,1-1.275.051.43.43,0,0,1,0-.051l.148-3.79a.492.492,0,0,1,.984,0Zm-1.348-5.674a.711.711,0,1,1,.711.711h0A.711.711,0,0,1,428.25,513.961Z" fill="#fff" fill-rule="evenodd"/><circle cx="6" cy="6" r="6" transform="translate(423 511)" fill="none"/><circle cx="6.5" cy="6.5" r="6.5" transform="translate(422.5 510.5)" fill="none" stroke="#fff" stroke-width="1"/><path d="M340.458,567.042a7.553,7.553,0,0,1,0-15.1l.269.005a7.55,7.55,0,0,1,0,15.1C340.641,567.043,340.55,567.043,340.458,567.042Zm.372-4.717h-.03a.836.836,0,0,0,0,1.671h.03a.835.835,0,0,0,.009-1.67Zm-.122-6.611h-.026a.747.747,0,0,0-.734.792l.251,4.45a.58.58,0,0,0,.567.546h.02a.577.577,0,0,0,.568-.567l.092-4.457a.75.75,0,0,0-.733-.764Z" fill="#fff"/><path d="M375,547.845h20v20H375Z" fill="none"/><path d="M391.125,556.211a6.244,6.244,0,0,0-11.667-1.666,5,5,0,0,0,.542,9.966h10.833a4.155,4.155,0,0,0,.292-8.3Zm-4.458,2.467v3.333h-3.334v-3.333h-2.5L385,554.511l4.167,4.167Z" fill="#fff"/><path d="M206,598.5a.5.5,0,0,0-1,0v5.55a2.5,2.5,0,0,0,0,4.9v1.55a.5.5,0,0,0,1,0v-1.55a2.5,2.5,0,0,0,0-4.9V598.5Zm6,0a.5.5,0,0,0-1,0v1.55a2.5,2.5,0,0,0,0,4.9v5.55a.5.5,0,0,0,1,0v-5.55a2.5,2.5,0,0,0,0-4.9V598.5Zm-6.5,6.5a1.5,1.5,0,1,0,1.5,1.5A1.5,1.5,0,0,0,205.5,605Zm4.5-2.5a1.5,1.5,0,1,1,1.5,1.5A1.5,1.5,0,0,1,210,602.5Z" fill="#586074" fill-rule="evenodd"/><path d="M252.078,603.663l-7.971,7.971" fill="#fff" stroke="#fff" stroke-width="1"/><path d="M252.079,603.663l7.971,7.971" fill="#fff" stroke="#fff" stroke-width="1"/><path d="M252.078,612.74v-8.081" fill="#fff" stroke="#fff" stroke-width="1"/><circle cx="1.088" cy="1.088" r="1.088" transform="translate(250.912 610.642)" fill="#4262f0" stroke="#fff" stroke-width="1"/><circle cx="1.321" cy="1.321" r="1.321" transform="translate(259.303 611.109)" fill="#4262f0" stroke="#fff" stroke-width="1"/><circle cx="1.321" cy="1.321" r="1.321" transform="translate(242.056 611.109)" fill="#4262f0" stroke="#fff" stroke-width="1"/><circle cx="7.225" cy="7.225" r="7.225" transform="translate(244.853 594.25)" fill="#4262f0" stroke="#fff" stroke-width="1"/><ellipse cx="3.265" cy="7.225" rx="3.265" ry="7.225" transform="translate(248.743 594.25)" fill="none" stroke="#fff" stroke-width="1"/><path d="M244.853,601.545H259.14" fill="#fff" stroke="#fff" stroke-width="1"/><path d="M245.653,605.157h12.8" fill="#fff" stroke="#fff" stroke-width="1"/><path d="M245.653,597.932h12.8" fill="#fff" stroke="#fff" stroke-width="1"/><rect width="24" height="24" transform="translate(283 589)" fill="none"/><circle cx="3.5" cy="3.5" r="3.5" transform="translate(297 592)" fill="none"/><circle cx="3" cy="3" r="3" transform="translate(297.5 592.5)" fill="none" stroke="#586074" stroke-width="1"/><circle cx="3.5" cy="3.5" r="3.5" transform="translate(297 603)" fill="none"/><circle cx="3" cy="3" r="3" transform="translate(297.5 603.5)" fill="none" stroke="#586074" stroke-width="1"/><circle cx="3.5" cy="3.5" r="3.5" transform="translate(286 598)" fill="none"/><circle cx="3" cy="3" r="3" transform="translate(286.5 598.5)" fill="none" stroke="#586074" stroke-width="1"/><path d="M292.276,599.658l5.335-3.013" fill="none" stroke="#586074" stroke-width="1"/><path d="M292.276,602.781l5.474,2.607" fill="none" stroke="#586074" stroke-width="1"/><g transform="translate(-1 -0.071)"><rect width="24" height="24" transform="translate(108 680.071)" fill="none"/><path d="M126.6,691.892a7.807,7.807,0,0,0-1.53-2.126,7.125,7.125,0,0,0-10.148,0,7.786,7.786,0,0,0-1.53,2.126.44.44,0,0,0,0,.359,7.807,7.807,0,0,0,1.53,2.126,7.127,7.127,0,0,0,10.148,0,7.807,7.807,0,0,0,1.53-2.126A.44.44,0,0,0,126.6,691.892Zm-6.6,3.722a6.094,6.094,0,0,1-4.424-1.841,7.371,7.371,0,0,1-1.277-1.7,7.372,7.372,0,0,1,1.277-1.7,6.236,6.236,0,0,1,8.848,0,7.362,7.362,0,0,1,1.28,1.7A6.583,6.583,0,0,1,120,695.614Zm0-6.2a2.657,2.657,0,1,0,2.657,2.657A2.658,2.658,0,0,0,120,689.414Zm0,4.428a1.771,1.771,0,1,1,1.771-1.771A1.771,1.771,0,0,1,120,693.842Z" fill="#586074"/></g><g transform="translate(-1 -0.071)"><rect width="24" height="24" transform="translate(64 680.071)" fill="none"/><path d="M82.227,693.771a.5.5,0,0,1-.68-.187l-1.184-2.069a7.674,7.674,0,0,1-2.248,1.042l.366,2.2a.5.5,0,0,1-.41.574.44.44,0,0,1-.08.007.5.5,0,0,1-.491-.417l-.361-2.159a8.26,8.26,0,0,1-2.286,0l-.36,2.155a.5.5,0,0,1-.492.417.446.446,0,0,1-.082-.007.5.5,0,0,1-.41-.574l.37-2.191a7.639,7.639,0,0,1-2.247-1.04l-1.18,2.071a.5.5,0,1,1-.869-.5h0l1.246-2.181a9.485,9.485,0,0,1-1.2-1.246.5.5,0,1,1,.776-.623,6.983,6.983,0,0,0,11.189,0,.5.5,0,0,1,.841.541.475.475,0,0,1-.066.082,9.616,9.616,0,0,1-1.2,1.246l1.246,2.181a.5.5,0,0,1-.18.684h0Z" fill="#586074"/></g></g></svg>